<svg width="88" height="92" viewBox="0 0 88 92" fill="none" xmlns="http://www.w3.org/2000/svg">
<rect x="13" y="7" width="62" height="62" rx="31" fill="white"/>
<rect x="13" y="7" width="62" height="62" rx="31" stroke="#FF3F1E" stroke-width="2"/>
<g filter="url(#filter0_dd_1_952)">
<rect x="12" y="6" width="64" height="64" rx="32" fill="white" fill-opacity="0.01" shape-rendering="crispEdges"/>
</g>
<path d="M40.5 39.5H41.95L45.85 35.575L44.425 34.15L40.5 38.05V39.5ZM46.575 34.85L47.275 34.15C47.3583 34.0667 47.4 33.9792 47.4 33.8875C47.4 33.7958 47.3583 33.7083 47.275 33.625L46.375 32.725C46.2917 32.6417 46.2042 32.6 46.1125 32.6C46.0208 32.6 45.9333 32.6417 45.85 32.725L45.15 33.425L46.575 34.85ZM44 45.35C46.0333 43.4833 47.5417 41.7875 48.525 40.2625C49.5083 38.7375 50 37.3833 50 36.2C50 34.3833 49.4208 32.8958 48.2625 31.7375C47.1042 30.5792 45.6833 30 44 30C42.3167 30 40.8958 30.5792 39.7375 31.7375C38.5792 32.8958 38 34.3833 38 36.2C38 37.3833 38.4917 38.7375 39.475 40.2625C40.4583 41.7875 41.9667 43.4833 44 45.35ZM44 48C41.3167 45.7167 39.3125 43.5958 37.9875 41.6375C36.6625 39.6792 36 37.8667 36 36.2C36 33.7 36.8042 31.7083 38.4125 30.225C40.0208 28.7417 41.8833 28 44 28C46.1167 28 47.9792 28.7417 49.5875 30.225C51.1958 31.7083 52 33.7 52 36.2C52 37.8667 51.3375 39.6792 50.0125 41.6375C48.6875 43.5958 46.6833 45.7167 44 48Z" fill="#FF3F1E"/>
<rect x="58" width="24" height="24" rx="12" fill="#FF3F1E"/>
<path d="M70.0066 15V8.61998L68.6499 9.43665V8.61L70.0066 7.8H70.7499V15H70.0066Z" fill="white"/>
<defs>
<filter id="filter0_dd_1_952" x="0" y="4" width="88" height="88" filterUnits="userSpaceOnUse" color-interpolation-filters="sRGB">
<feFlood flood-opacity="0" result="BackgroundImageFix"/>
<feColorMatrix in="SourceAlpha" type="matrix" values="0 0 0 0 0 0 0 0 0 0 0 0 0 0 0 0 0 0 127 0" result="hardAlpha"/>
<feMorphology radius="4" operator="erode" in="SourceAlpha" result="effect1_dropShadow_1_952"/>
<feOffset dy="4"/>
<feGaussianBlur stdDeviation="3"/>
<feComposite in2="hardAlpha" operator="out"/>
<feColorMatrix type="matrix" values="0 0 0 0 0 0 0 0 0 0 0 0 0 0 0 0 0 0 0.1 0"/>
<feBlend mode="normal" in2="BackgroundImageFix" result="effect1_dropShadow_1_952"/>
<feColorMatrix in="SourceAlpha" type="matrix" values="0 0 0 0 0 0 0 0 0 0 0 0 0 0 0 0 0 0 127 0" result="hardAlpha"/>
<feMorphology radius="3" operator="erode" in="SourceAlpha" result="effect2_dropShadow_1_952"/>
<feOffset dy="10"/>
<feGaussianBlur stdDeviation="7.5"/>
<feComposite in2="hardAlpha" operator="out"/>
<feColorMatrix type="matrix" values="0 0 0 0 0 0 0 0 0 0 0 0 0 0 0 0 0 0 0.1 0"/>
<feBlend mode="normal" in2="effect1_dropShadow_1_952" result="effect2_dropShadow_1_952"/>
<feBlend mode="normal" in="SourceGraphic" in2="effect2_dropShadow_1_952" result="shape"/>
</filter>
</defs>
</svg>
