<svg width="74" height="74" viewBox="0 0 74 74" fill="none" xmlns="http://www.w3.org/2000/svg">
<g filter="url(#filter0_d_1_963)">
<rect x="2" y="7" width="64" height="64" rx="32" fill="white" shape-rendering="crispEdges"/>
<rect x="3" y="8" width="62" height="62" rx="31" stroke="#FF3F1E" stroke-opacity="0.2" stroke-width="2" shape-rendering="crispEdges"/>
<path d="M30 47L28.6 45.575L31.175 43H24V41H31.175L28.6 38.425L30 37L35 42L30 47ZM38 41L33 36L38 31L39.4 32.425L36.825 35H44V37H36.825L39.4 39.575L38 41Z" fill="#5F5E5E"/>
<rect x="48" y="1" width="24" height="24" rx="12" fill="#FF3F1E" fill-opacity="0.2"/>
<path d="M57.6499 15.9967L57.6566 15.3233L60.9099 12.3833C61.1899 12.1322 61.3755 11.8922 61.4666 11.6633C61.5577 11.4344 61.6032 11.1944 61.6032 10.9433C61.6032 10.6478 61.5338 10.3803 61.3949 10.1408C61.256 9.90138 61.0682 9.71082 60.8316 9.56915C60.5949 9.42748 60.3288 9.35665 60.0332 9.35665C59.7277 9.35665 59.4546 9.42971 59.2141 9.57582C58.9735 9.72193 58.7843 9.91527 58.6466 10.1558C58.5088 10.3964 58.441 10.6578 58.4432 10.94H57.6966C57.6966 10.5022 57.7999 10.1106 58.0066 9.765C58.2132 9.41944 58.4932 9.14722 58.8466 8.94833C59.1999 8.74944 59.5988 8.65 60.0432 8.65C60.4799 8.65 60.8724 8.7525 61.2207 8.9575C61.5691 9.1625 61.8443 9.43889 62.0466 9.78667C62.2488 10.1344 62.3499 10.5222 62.3499 10.95C62.3499 11.2511 62.3138 11.5153 62.2416 11.7425C62.1693 11.9697 62.0577 12.1808 61.9066 12.3758C61.7555 12.5708 61.5632 12.7722 61.3299 12.98L58.4399 15.59L58.3232 15.29H62.3499V15.9967H57.6499Z" fill="white"/>
</g>
<defs>
<filter id="filter0_d_1_963" x="0" y="0" width="74" height="74" filterUnits="userSpaceOnUse" color-interpolation-filters="sRGB">
<feFlood flood-opacity="0" result="BackgroundImageFix"/>
<feColorMatrix in="SourceAlpha" type="matrix" values="0 0 0 0 0 0 0 0 0 0 0 0 0 0 0 0 0 0 127 0" result="hardAlpha"/>
<feOffset dy="1"/>
<feGaussianBlur stdDeviation="1"/>
<feComposite in2="hardAlpha" operator="out"/>
<feColorMatrix type="matrix" values="0 0 0 0 0 0 0 0 0 0 0 0 0 0 0 0 0 0 0.05 0"/>
<feBlend mode="normal" in2="BackgroundImageFix" result="effect1_dropShadow_1_963"/>
<feBlend mode="normal" in="SourceGraphic" in2="effect1_dropShadow_1_963" result="shape"/>
</filter>
</defs>
</svg>
