<svg width="170" height="55" viewBox="0 0 170 55" fill="none" xmlns="http://www.w3.org/2000/svg">
<rect width="169.42" height="55" rx="27.5" fill="#191C1D"/>
<path d="M34 35.5C33.45 35.5 32.9792 35.3042 32.5875 34.9125C32.1958 34.5208 32 34.05 32 33.5C32 32.95 32.1958 32.4792 32.5875 32.0875C32.9792 31.6958 33.45 31.5 34 31.5C34.55 31.5 35.0208 31.6958 35.4125 32.0875C35.8042 32.4792 36 32.95 36 33.5C36 34.05 35.8042 34.5208 35.4125 34.9125C35.0208 35.3042 34.55 35.5 34 35.5ZM40 35.5C39.45 35.5 38.9792 35.3042 38.5875 34.9125C38.1958 34.5208 38 34.05 38 33.5C38 32.95 38.1958 32.4792 38.5875 32.0875C38.9792 31.6958 39.45 31.5 40 31.5C40.55 31.5 41.0208 31.6958 41.4125 32.0875C41.8042 32.4792 42 32.95 42 33.5C42 34.05 41.8042 34.5208 41.4125 34.9125C41.0208 35.3042 40.55 35.5 40 35.5ZM46 35.5C45.45 35.5 44.9792 35.3042 44.5875 34.9125C44.1958 34.5208 44 34.05 44 33.5C44 32.95 44.1958 32.4792 44.5875 32.0875C44.9792 31.6958 45.45 31.5 46 31.5C46.55 31.5 47.0208 31.6958 47.4125 32.0875C47.8042 32.4792 48 32.95 48 33.5C48 34.05 47.8042 34.5208 47.4125 34.9125C47.0208 35.3042 46.55 35.5 46 35.5ZM34 29.5C33.45 29.5 32.9792 29.3042 32.5875 28.9125C32.1958 28.5208 32 28.05 32 27.5C32 26.95 32.1958 26.4792 32.5875 26.0875C32.9792 25.6958 33.45 25.5 34 25.5C34.55 25.5 35.0208 25.6958 35.4125 26.0875C35.8042 26.4792 36 26.95 36 27.5C36 28.05 35.8042 28.5208 35.4125 28.9125C35.0208 29.3042 34.55 29.5 34 29.5ZM40 29.5C39.45 29.5 38.9792 29.3042 38.5875 28.9125C38.1958 28.5208 38 28.05 38 27.5C38 26.95 38.1958 26.4792 38.5875 26.0875C38.9792 25.6958 39.45 25.5 40 25.5C40.55 25.5 41.0208 25.6958 41.4125 26.0875C41.8042 26.4792 42 26.95 42 27.5C42 28.05 41.8042 28.5208 41.4125 28.9125C41.0208 29.3042 40.55 29.5 40 29.5ZM46 29.5C45.45 29.5 44.9792 29.3042 44.5875 28.9125C44.1958 28.5208 44 28.05 44 27.5C44 26.95 44.1958 26.4792 44.5875 26.0875C44.9792 25.6958 45.45 25.5 46 25.5C46.55 25.5 47.0208 25.6958 47.4125 26.0875C47.8042 26.4792 48 26.95 48 27.5C48 28.05 47.8042 28.5208 47.4125 28.9125C47.0208 29.3042 46.55 29.5 46 29.5ZM34 23.5C33.45 23.5 32.9792 23.3042 32.5875 22.9125C32.1958 22.5208 32 22.05 32 21.5C32 20.95 32.1958 20.4792 32.5875 20.0875C32.9792 19.6958 33.45 19.5 34 19.5C34.55 19.5 35.0208 19.6958 35.4125 20.0875C35.8042 20.4792 36 20.95 36 21.5C36 22.05 35.8042 22.5208 35.4125 22.9125C35.0208 23.3042 34.55 23.5 34 23.5ZM40 23.5C39.45 23.5 38.9792 23.3042 38.5875 22.9125C38.1958 22.5208 38 22.05 38 21.5C38 20.95 38.1958 20.4792 38.5875 20.0875C38.9792 19.6958 39.45 19.5 40 19.5C40.55 19.5 41.0208 19.6958 41.4125 20.0875C41.8042 20.4792 42 20.95 42 21.5C42 22.05 41.8042 22.5208 41.4125 22.9125C41.0208 23.3042 40.55 23.5 40 23.5ZM46 23.5C45.45 23.5 44.9792 23.3042 44.5875 22.9125C44.1958 22.5208 44 22.05 44 21.5C44 20.95 44.1958 20.4792 44.5875 20.0875C44.9792 19.6958 45.45 19.5 46 19.5C46.55 19.5 47.0208 19.6958 47.4125 20.0875C47.8042 20.4792 48 20.95 48 21.5C48 22.05 47.8042 22.5208 47.4125 22.9125C47.0208 23.3042 46.55 23.5 46 23.5Z" fill="white"/>
<g opacity="0.7">
<path d="M60.7 22V14.8H62.8833C62.96 14.8 63.0911 14.8017 63.2767 14.805C63.4622 14.8083 63.64 14.8222 63.81 14.8467C64.3567 14.9211 64.8133 15.1239 65.18 15.455C65.5467 15.7861 65.8217 16.2067 66.005 16.7167C66.1883 17.2267 66.28 17.7878 66.28 18.4C66.28 19.0144 66.1883 19.5767 66.005 20.0867C65.8217 20.5967 65.5467 21.0167 65.18 21.3467C64.8133 21.6767 64.3567 21.8789 63.81 21.9533C63.6422 21.9756 63.4639 21.9889 63.275 21.9933C63.0861 21.9978 62.9556 22 62.8833 22H60.7ZM61.46 21.2934H62.8833C63.02 21.2934 63.1678 21.2892 63.3267 21.2809C63.4856 21.2725 63.6222 21.2578 63.7367 21.2367C64.1567 21.1622 64.4958 20.9917 64.7542 20.725C65.0125 20.4583 65.2014 20.1239 65.3208 19.7217C65.4403 19.3195 65.5 18.8789 65.5 18.4C65.5 17.9156 65.4397 17.4722 65.3192 17.07C65.1986 16.6678 65.0089 16.3344 64.75 16.07C64.4911 15.8055 64.1533 15.6366 63.7367 15.5633C63.6222 15.5411 63.4839 15.5261 63.3217 15.5183C63.1594 15.5105 63.0133 15.5066 62.8833 15.5066H61.46V21.2934ZM69.6717 22.15C69.135 22.15 68.6761 22.0283 68.295 21.785C67.9139 21.5417 67.6219 21.2053 67.4192 20.7758C67.2164 20.3464 67.115 19.8522 67.115 19.2933C67.115 18.7278 67.2183 18.2314 67.425 17.8042C67.6317 17.3769 67.9261 17.0444 68.3083 16.8067C68.6906 16.5689 69.145 16.45 69.6717 16.45C70.2106 16.45 70.6708 16.5711 71.0525 16.8133C71.4342 17.0556 71.7261 17.3903 71.9283 17.8175C72.1305 18.2447 72.2317 18.7367 72.2317 19.2933C72.2317 19.86 72.1297 20.3575 71.9258 20.7858C71.7219 21.2142 71.4286 21.5486 71.0458 21.7892C70.663 22.0297 70.205 22.15 69.6717 22.15ZM69.6717 21.4467C70.2706 21.4467 70.7169 21.247 71.0108 20.8475C71.3047 20.4481 71.4517 19.93 71.4517 19.2933C71.4517 18.6422 71.3036 18.1228 71.0075 17.735C70.7114 17.3472 70.2661 17.1533 69.6717 17.1533C69.2683 17.1533 68.9355 17.2444 68.6733 17.4267C68.4111 17.6089 68.2158 17.8605 68.0875 18.1817C67.9591 18.5028 67.895 18.8733 67.895 19.2933C67.895 19.9433 68.0453 20.4647 68.3458 20.8575C68.6464 21.2503 69.0883 21.4467 69.6717 21.4467ZM74.28 22L72.63 16.5967L73.3666 16.6L74.6467 20.7934L75.9317 16.6H76.6017L77.8867 20.7934L79.1733 16.6H79.9033L78.2533 22H77.6133L76.2667 17.7L74.92 22H74.28ZM84.705 22V19.2433C84.705 18.9444 84.6767 18.6692 84.62 18.4175C84.5633 18.1658 84.4722 17.9461 84.3467 17.7583C84.2211 17.5705 84.0592 17.425 83.8608 17.3216C83.6625 17.2183 83.4217 17.1666 83.1383 17.1666C82.8794 17.1666 82.6505 17.2111 82.4517 17.3C82.2528 17.3889 82.0861 17.5175 81.9516 17.6858C81.8172 17.8542 81.7153 18.0589 81.6458 18.3C81.5764 18.5411 81.5416 18.8144 81.5416 19.12L81.0217 19.0033C81.0217 18.45 81.1183 17.985 81.3117 17.6083C81.505 17.2317 81.7714 16.9472 82.1108 16.755C82.4503 16.5628 82.8405 16.4667 83.2817 16.4667C83.605 16.4667 83.8872 16.5161 84.1283 16.615C84.3694 16.7139 84.5741 16.8483 84.7425 17.0183C84.9108 17.1883 85.0466 17.383 85.15 17.6025C85.2533 17.8219 85.3283 18.0539 85.375 18.2983C85.4217 18.5428 85.445 18.7867 85.445 19.03V22H84.705ZM80.8017 22V16.6H81.465V17.93H81.5416V22H80.8017ZM86.845 22V14.65H87.5783V22H86.845ZM91.3367 22.15C90.8 22.15 90.3411 22.0283 89.96 21.785C89.5789 21.5417 89.2869 21.2053 89.0842 20.7758C88.8814 20.3464 88.78 19.8522 88.78 19.2933C88.78 18.7278 88.8833 18.2314 89.09 17.8042C89.2967 17.3769 89.5911 17.0444 89.9733 16.8067C90.3556 16.5689 90.81 16.45 91.3367 16.45C91.8755 16.45 92.3358 16.5711 92.7175 16.8133C93.0992 17.0556 93.3911 17.3903 93.5933 17.8175C93.7955 18.2447 93.8967 18.7367 93.8967 19.2933C93.8967 19.86 93.7947 20.3575 93.5908 20.7858C93.3869 21.2142 93.0936 21.5486 92.7108 21.7892C92.328 22.0297 91.87 22.15 91.3367 22.15ZM91.3367 21.4467C91.9356 21.4467 92.3819 21.247 92.6758 20.8475C92.9697 20.4481 93.1167 19.93 93.1167 19.2933C93.1167 18.6422 92.9686 18.1228 92.6725 17.735C92.3764 17.3472 91.9311 17.1533 91.3367 17.1533C90.9333 17.1533 90.6005 17.2444 90.3383 17.4267C90.0761 17.6089 89.8808 17.8605 89.7525 18.1817C89.6241 18.5028 89.56 18.8733 89.56 19.2933C89.56 19.9433 89.7103 20.4647 90.0108 20.8575C90.3114 21.2503 90.7533 21.4467 91.3367 21.4467ZM96.5417 22.15C96.1328 22.15 95.7914 22.0764 95.5175 21.9292C95.2436 21.7819 95.0381 21.5869 94.9008 21.3442C94.7636 21.1014 94.695 20.8367 94.695 20.55C94.695 20.2556 94.7539 20.0044 94.8717 19.7967C94.9894 19.5889 95.1514 19.4186 95.3575 19.2858C95.5636 19.1531 95.8006 19.0511 96.0683 18.98C96.3439 18.9133 96.6472 18.8544 96.9783 18.8033C97.3095 18.7522 97.6345 18.7069 97.9533 18.6675C98.2722 18.6281 98.5517 18.5911 98.7917 18.5567L98.5283 18.7133C98.5395 18.1822 98.4367 17.7878 98.22 17.53C98.0033 17.2722 97.6261 17.1433 97.0883 17.1433C96.7194 17.1433 96.4072 17.2267 96.1517 17.3933C95.8961 17.56 95.7172 17.8233 95.615 18.1833L94.8983 17.9733C95.0239 17.4911 95.2733 17.1167 95.6467 16.85C96.02 16.5833 96.505 16.45 97.1017 16.45C97.5939 16.45 98.0128 16.5422 98.3583 16.7267C98.7039 16.9111 98.9483 17.1789 99.0917 17.53C99.1583 17.6856 99.2017 17.86 99.2217 18.0533C99.2417 18.2467 99.2517 18.4444 99.2517 18.6467V22H98.595V20.6433L98.785 20.7267C98.6017 21.19 98.317 21.543 97.9308 21.7858C97.5447 22.0286 97.0817 22.15 96.5417 22.15ZM96.625 21.5133C96.9683 21.5133 97.2681 21.452 97.5242 21.3292C97.7803 21.2064 97.987 21.0378 98.1442 20.8233C98.3014 20.6089 98.4028 20.3656 98.4483 20.0933C98.4895 19.92 98.512 19.7297 98.5158 19.5225C98.5197 19.3153 98.5217 19.1589 98.5217 19.0533L98.8017 19.2C98.5495 19.2333 98.2778 19.2669 97.9867 19.3008C97.6956 19.3347 97.4089 19.3728 97.1267 19.415C96.8444 19.4572 96.5906 19.5089 96.365 19.57C96.2117 19.6144 96.0636 19.6758 95.9208 19.7542C95.778 19.8325 95.6608 19.9361 95.5691 20.065C95.4775 20.1939 95.4316 20.3556 95.4316 20.55C95.4316 20.7067 95.4708 20.8586 95.5491 21.0058C95.6275 21.1531 95.7539 21.2745 95.9283 21.37C96.1028 21.4656 96.335 21.5133 96.625 21.5133ZM102.647 22.15C102.141 22.15 101.71 22.0244 101.353 21.7733C100.997 21.5222 100.724 21.1811 100.534 20.75C100.345 20.3189 100.25 19.8333 100.25 19.2933C100.25 18.7567 100.344 18.2736 100.532 17.8442C100.721 17.4147 100.992 17.075 101.345 16.825C101.698 16.575 102.122 16.45 102.617 16.45C103.123 16.45 103.55 16.5733 103.897 16.82C104.243 17.0667 104.506 17.4044 104.683 17.8333C104.861 18.2622 104.95 18.7489 104.95 19.2933C104.95 19.8311 104.861 20.3156 104.684 20.7467C104.507 21.1778 104.247 21.5194 103.905 21.7717C103.563 22.0239 103.143 22.15 102.647 22.15ZM102.72 21.4667C103.103 21.4667 103.42 21.3728 103.671 21.185C103.921 20.9972 104.108 20.7395 104.23 20.4117C104.352 20.0839 104.413 19.7111 104.413 19.2933C104.413 18.8711 104.352 18.4972 104.228 18.1717C104.105 17.8461 103.919 17.5917 103.671 17.4083C103.422 17.225 103.111 17.1333 102.737 17.1333C102.349 17.1333 102.029 17.2286 101.776 17.4192C101.523 17.6097 101.336 17.868 101.213 18.1942C101.091 18.5203 101.03 18.8867 101.03 19.2933C101.03 19.7033 101.093 20.0725 101.218 20.4008C101.344 20.7292 101.532 20.9889 101.782 21.18C102.032 21.3711 102.344 21.4667 102.72 21.4667ZM104.413 22V17.9333H104.337V14.8H105.073V22H104.413ZM110.732 22.15C110.195 22.15 109.736 22.0283 109.355 21.785C108.974 21.5417 108.682 21.2053 108.479 20.7758C108.276 20.3464 108.175 19.8522 108.175 19.2933C108.175 18.7278 108.278 18.2314 108.485 17.8042C108.692 17.3769 108.986 17.0444 109.368 16.8067C109.751 16.5689 110.205 16.45 110.732 16.45C111.271 16.45 111.731 16.5711 112.112 16.8133C112.494 17.0556 112.786 17.3903 112.988 17.8175C113.191 18.2447 113.292 18.7367 113.292 19.2933C113.292 19.86 113.19 20.3575 112.986 20.7858C112.782 21.2142 112.489 21.5486 112.106 21.7892C111.723 22.0297 111.265 22.15 110.732 22.15ZM110.732 21.4467C111.331 21.4467 111.777 21.247 112.071 20.8475C112.365 20.4481 112.512 19.93 112.512 19.2933C112.512 18.6422 112.364 18.1228 112.068 17.735C111.771 17.3472 111.326 17.1533 110.732 17.1533C110.328 17.1533 109.996 17.2444 109.733 17.4267C109.471 17.6089 109.276 17.8605 109.147 18.1817C109.019 18.5028 108.955 18.8733 108.955 19.2933C108.955 19.9433 109.105 20.4647 109.406 20.8575C109.706 21.2503 110.148 21.4467 110.732 21.4467ZM118.29 22V19.2433C118.29 18.9444 118.262 18.6692 118.205 18.4175C118.148 18.1658 118.057 17.9461 117.932 17.7583C117.806 17.5705 117.644 17.425 117.446 17.3216C117.247 17.2183 117.007 17.1666 116.723 17.1666C116.464 17.1666 116.236 17.2111 116.037 17.3C115.838 17.3889 115.671 17.5175 115.537 17.6858C115.402 17.8542 115.3 18.0589 115.231 18.3C115.161 18.5411 115.127 18.8144 115.127 19.12L114.607 19.0033C114.607 18.45 114.703 17.985 114.897 17.6083C115.09 17.2317 115.356 16.9472 115.696 16.755C116.035 16.5628 116.426 16.4667 116.867 16.4667C117.19 16.4667 117.472 16.5161 117.713 16.615C117.954 16.7139 118.159 16.8483 118.327 17.0183C118.496 17.1883 118.632 17.383 118.735 17.6025C118.838 17.8219 118.913 18.0539 118.96 18.2983C119.007 18.5428 119.03 18.7867 119.03 19.03V22H118.29ZM114.387 22V16.6H115.05V17.93H115.127V22H114.387ZM125.27 22C124.966 22.0633 124.666 22.0886 124.371 22.0758C124.076 22.0631 123.813 21.9997 123.581 21.8858C123.349 21.7719 123.174 21.5956 123.057 21.3567C122.959 21.1567 122.906 20.9536 122.897 20.7475C122.888 20.5414 122.883 20.3067 122.883 20.0433V15.1H123.617V20.0167C123.617 20.2422 123.619 20.4308 123.624 20.5825C123.629 20.7342 123.663 20.8689 123.727 20.9867C123.847 21.21 124.037 21.3428 124.298 21.385C124.559 21.4272 124.883 21.4178 125.27 21.3567V22ZM121.73 17.23V16.6H125.27V17.23H121.73ZM130.235 22V19.2433C130.235 18.9444 130.207 18.6692 130.15 18.4175C130.093 18.1658 130.002 17.9461 129.877 17.7583C129.751 17.5705 129.589 17.425 129.391 17.3216C129.192 17.2183 128.952 17.1666 128.668 17.1666C128.409 17.1666 128.181 17.2111 127.982 17.3C127.783 17.3889 127.616 17.5175 127.482 17.6858C127.347 17.8542 127.245 18.0589 127.176 18.3C127.106 18.5411 127.072 18.8144 127.072 19.12L126.552 19.0033C126.552 18.45 126.648 17.985 126.842 17.6083C127.035 17.2317 127.301 16.9472 127.641 16.755C127.98 16.5628 128.371 16.4667 128.812 16.4667C129.135 16.4667 129.417 16.5161 129.658 16.615C129.899 16.7139 130.104 16.8483 130.272 17.0183C130.441 17.1883 130.577 17.383 130.68 17.6025C130.783 17.8219 130.858 18.0539 130.905 18.2983C130.952 18.5428 130.975 18.7867 130.975 19.03V22H130.235ZM126.332 22V14.8H126.995V18.8667H127.072V22H126.332ZM134.558 22.15C134.034 22.15 133.579 22.0336 133.192 21.8008C132.806 21.5681 132.507 21.2397 132.294 20.8158C132.081 20.3919 131.975 19.8944 131.975 19.3233C131.975 18.7333 132.08 18.2233 132.29 17.7933C132.5 17.3633 132.796 17.0319 133.178 16.7992C133.561 16.5664 134.012 16.45 134.532 16.45C135.065 16.45 135.52 16.5722 135.897 16.8167C136.273 17.0611 136.558 17.4117 136.752 17.8683C136.945 18.325 137.032 18.8711 137.013 19.5067H136.265V19.2467C136.252 18.5456 136.101 18.0164 135.813 17.6592C135.524 17.3019 135.104 17.1233 134.552 17.1233C133.971 17.1233 133.526 17.3119 133.217 17.6892C132.909 18.0664 132.755 18.6033 132.755 19.3C132.755 19.9811 132.909 20.5092 133.217 20.8842C133.526 21.2592 133.964 21.4467 134.532 21.4467C134.918 21.4467 135.256 21.3572 135.543 21.1783C135.831 20.9995 136.058 20.7422 136.225 20.4067L136.912 20.67C136.697 21.1411 136.382 21.5056 135.967 21.7633C135.552 22.0211 135.083 22.15 134.558 22.15ZM132.495 19.5067V18.89H136.622V19.5067H132.495Z" fill="white"/>
</g>
<path d="M60.28 39L63.458 28.92H65.9313L69.1093 39H67.371L64.4893 29.956H64.8627L62.0183 39H60.28ZM62.0533 36.8137V35.2387H67.3453V36.8137H62.0533ZM73.9977 39.21C73.2603 39.21 72.6428 39.0346 72.145 38.6838C71.6472 38.3331 71.2719 37.8565 71.0192 37.2541C70.7664 36.6517 70.64 35.9729 70.64 35.2177C70.64 34.4601 70.7656 33.7805 71.0168 33.1789C71.2681 32.5773 71.6381 32.1021 72.1269 31.7533C72.6157 31.4044 73.2183 31.23 73.9347 31.23C74.6502 31.23 75.2711 31.4032 75.7972 31.7497C76.3234 32.0963 76.7306 32.5695 77.0187 33.1696C77.3069 33.7696 77.451 34.4523 77.451 35.2177C77.451 35.9737 77.3085 36.6529 77.0234 37.2552C76.7383 37.8576 76.3374 38.334 75.8206 38.6844C75.3037 39.0348 74.6961 39.21 73.9977 39.21ZM70.3553 42.36V31.44H71.8463V36.7483H72.0516V42.36H70.3553ZM73.741 37.7004C74.1804 37.7004 74.5419 37.5899 74.8254 37.369C75.1089 37.1481 75.3199 36.8498 75.4583 36.4742C75.5968 36.0985 75.666 35.6797 75.666 35.2177C75.666 34.7603 75.5954 34.3442 75.4543 33.9693C75.3131 33.5944 75.0961 33.2958 74.8033 33.0733C74.5104 32.8509 74.1369 32.7396 73.6827 32.7396C73.2541 32.7396 72.9045 32.8435 72.6338 33.0511C72.3632 33.2588 72.1642 33.5491 72.0371 33.9221C71.9099 34.295 71.8463 34.7269 71.8463 35.2177C71.8463 35.7069 71.9097 36.1384 72.0365 36.5121C72.1633 36.8858 72.3659 37.1773 72.6443 37.3865C72.9228 37.5957 73.2883 37.7004 73.741 37.7004ZM82.6217 39.21C81.8843 39.21 81.2668 39.0346 80.769 38.6838C80.2712 38.3331 79.8959 37.8565 79.6432 37.2541C79.3904 36.6517 79.264 35.9729 79.264 35.2177C79.264 34.4601 79.3896 33.7805 79.6408 33.1789C79.8921 32.5773 80.2621 32.1021 80.7509 31.7533C81.2397 31.4044 81.8423 31.23 82.5587 31.23C83.2742 31.23 83.8951 31.4032 84.4212 31.7497C84.9474 32.0963 85.3546 32.5695 85.6427 33.1696C85.9309 33.7696 86.075 34.4523 86.075 35.2177C86.075 35.9737 85.9325 36.6529 85.6474 37.2552C85.3623 37.8576 84.9614 38.334 84.4446 38.6844C83.9277 39.0348 83.3201 39.21 82.6217 39.21ZM78.9793 42.36V31.44H80.4703V36.7483H80.6756V42.36H78.9793ZM82.365 37.7004C82.8044 37.7004 83.1659 37.5899 83.4494 37.369C83.7329 37.1481 83.9439 36.8498 84.0823 36.4742C84.2208 36.0985 84.29 35.6797 84.29 35.2177C84.29 34.7603 84.2194 34.3442 84.0783 33.9693C83.9371 33.5944 83.7201 33.2958 83.4273 33.0733C83.1344 32.8509 82.7609 32.7396 82.3067 32.7396C81.8781 32.7396 81.5285 32.8435 81.2578 33.0511C80.9872 33.2588 80.7882 33.5491 80.6611 33.9221C80.5339 34.295 80.4703 34.7269 80.4703 35.2177C80.4703 35.7069 80.5337 36.1384 80.6605 36.5121C80.7873 36.8858 80.9899 37.1773 81.2683 37.3865C81.5468 37.5957 81.9123 37.7004 82.365 37.7004ZM94.146 39.21C93.4102 39.21 92.7472 39.0817 92.1568 38.825C91.5665 38.5683 91.0812 38.201 90.7008 37.7231C90.3205 37.2451 90.0774 36.676 89.9717 36.0157L91.7263 35.752C91.8733 36.3494 92.179 36.8117 92.6433 37.1392C93.1076 37.4666 93.6435 37.6304 94.251 37.6304C94.6095 37.6304 94.9479 37.574 95.266 37.4612C95.5841 37.3484 95.8421 37.1841 96.0401 36.9683C96.238 36.7524 96.337 36.4901 96.337 36.1813C96.337 36.039 96.3139 35.9089 96.2676 35.7911C96.2213 35.6732 96.1529 35.5675 96.0622 35.4737C95.9716 35.38 95.8554 35.295 95.7134 35.2188C95.5715 35.1426 95.4052 35.0753 95.2147 35.017L92.613 34.2493C92.389 34.1848 92.1471 34.0969 91.8873 33.9856C91.6275 33.8744 91.3825 33.7228 91.1523 33.5306C90.9221 33.3385 90.7331 33.0918 90.5853 32.7904C90.4376 32.489 90.3637 32.1159 90.3637 31.671C90.3637 31.0216 90.5287 30.4769 90.8589 30.0371C91.1891 29.5973 91.6326 29.2671 92.1895 29.0466C92.7464 28.8261 93.3667 28.7178 94.0503 28.7217C94.7394 28.7294 95.355 28.8488 95.8972 29.0798C96.4393 29.3108 96.8917 29.6449 97.2546 30.082C97.6174 30.5191 97.8739 31.0496 98.024 31.6733L96.211 31.9837C96.1379 31.6298 95.9944 31.3286 95.7805 31.0801C95.5666 30.8316 95.307 30.6416 95.0018 30.5101C94.6965 30.3787 94.3715 30.3091 94.027 30.3013C93.6902 30.2935 93.3787 30.3427 93.0925 30.4489C92.8063 30.5551 92.5754 30.7058 92.4001 30.901C92.2247 31.0962 92.137 31.3249 92.137 31.587C92.137 31.8367 92.2114 32.0389 92.3604 32.1937C92.5093 32.3484 92.6954 32.4719 92.9186 32.5641C93.1419 32.6563 93.3666 32.7327 93.593 32.7933L95.399 33.295C95.6463 33.3619 95.9236 33.4513 96.2308 33.5633C96.538 33.6753 96.834 33.8315 97.1186 34.0318C97.4033 34.232 97.6382 34.4957 97.8233 34.8228C98.0084 35.1498 98.101 35.5638 98.101 36.0647C98.101 36.5881 97.9931 37.0472 97.7772 37.4419C97.5614 37.8366 97.2684 38.1645 96.8982 38.4254C96.5279 38.6864 96.1058 38.8824 95.6317 39.0134C95.1577 39.1445 94.6624 39.21 94.146 39.21ZM104.051 39C103.552 39.0957 103.063 39.1369 102.584 39.1237C102.104 39.1104 101.676 39.0218 101.299 38.8577C100.923 38.6936 100.637 38.4314 100.441 38.0713C100.267 37.7423 100.175 37.4079 100.165 37.068C100.155 36.7281 100.15 36.3423 100.15 35.9107V29.34H101.834V35.8173C101.834 36.1168 101.838 36.3814 101.845 36.6113C101.852 36.8411 101.9 37.0291 101.988 37.1753C102.156 37.453 102.424 37.608 102.792 37.6403C103.16 37.6725 103.58 37.6552 104.051 37.5884V39ZM98.78 32.763V31.44H104.051V32.763H98.78ZM108.638 39.21C107.88 39.21 107.219 39.0397 106.655 38.699C106.091 38.3583 105.654 37.888 105.343 37.2879C105.032 36.6879 104.877 35.9978 104.877 35.2177C104.877 34.4282 105.036 33.7339 105.353 33.1346C105.67 32.5353 106.111 32.0681 106.675 31.7328C107.24 31.3976 107.894 31.23 108.638 31.23C109.397 31.23 110.06 31.4001 110.626 31.7404C111.192 32.0807 111.631 32.5505 111.943 33.1498C112.255 33.749 112.411 34.4383 112.411 35.2177C112.411 36.004 112.254 36.697 111.939 37.2967C111.625 37.8963 111.184 38.3651 110.618 38.7031C110.052 39.041 109.392 39.21 108.638 39.21ZM108.638 37.6304C109.306 37.6304 109.805 37.4056 110.133 36.956C110.462 36.5065 110.626 35.927 110.626 35.2177C110.626 34.4858 110.46 33.9015 110.127 33.4647C109.794 33.028 109.298 32.8096 108.638 32.8096C108.186 32.8096 107.814 32.9115 107.522 33.1153C107.231 33.3191 107.015 33.6014 106.874 33.9623C106.733 34.3232 106.662 34.7417 106.662 35.2177C106.662 35.9527 106.829 36.5385 107.164 36.9753C107.498 37.412 107.99 37.6304 108.638 37.6304ZM113.949 39V31.44H115.44V33.281L115.258 33.043C115.353 32.791 115.478 32.5608 115.635 32.3523C115.791 32.1439 115.978 31.972 116.196 31.8367C116.382 31.7099 116.588 31.6115 116.814 31.5415C117.04 31.4715 117.272 31.4283 117.51 31.412C117.748 31.3957 117.98 31.405 118.207 31.44V33.015C117.98 32.9489 117.722 32.9283 117.432 32.9531C117.142 32.978 116.879 33.0585 116.642 33.1946C116.411 33.3214 116.222 33.4826 116.075 33.6782C115.929 33.8739 115.82 34.0965 115.75 34.3462C115.68 34.5958 115.645 34.8669 115.645 35.1593V39H113.949ZM122.83 39.21C122.065 39.21 121.394 39.0441 120.816 38.7124C120.238 38.3807 119.787 37.921 119.462 37.3334C119.137 36.7458 118.975 36.0686 118.975 35.3017C118.975 34.4757 119.134 33.7582 119.453 33.1492C119.771 32.5402 120.213 32.0681 120.777 31.7328C121.341 31.3976 121.994 31.23 122.736 31.23C123.518 31.23 124.183 31.4128 124.731 31.7783C125.28 32.1439 125.687 32.6603 125.955 33.3277C126.222 33.995 126.322 34.7829 126.256 35.6913H124.582V35.0753C124.577 34.2524 124.433 33.6516 124.148 33.2728C123.863 32.894 123.416 32.7046 122.806 32.7046C122.116 32.7046 121.603 32.9185 121.266 33.3463C120.929 33.7741 120.76 34.3987 120.76 35.22C120.76 35.9869 120.929 36.5803 121.266 37.0004C121.603 37.4204 122.093 37.6304 122.736 37.6304C123.152 37.6304 123.509 37.5378 123.81 37.3527C124.11 37.1676 124.342 36.9008 124.505 36.5523L126.173 37.054C125.885 37.7369 125.438 38.2669 124.832 38.6442C124.227 39.0214 123.559 39.21 122.83 39.21ZM120.228 35.6913V34.415H125.431V35.6913H120.228Z" fill="white"/>
</svg>
