<svg width="167" height="55" viewBox="0 0 167 55" fill="none" xmlns="http://www.w3.org/2000/svg">
<rect width="166.69" height="55" rx="27.5" fill="#191C1D"/>
<path d="M32 34.5V20.5L43 27.5L32 34.5ZM34 30.85L39.25 27.5L34 24.15V30.85Z" fill="white"/>
<g opacity="0.7">
<path d="M58.5867 22.15C58.0778 22.15 57.6205 22.0619 57.215 21.8858C56.8094 21.7097 56.4642 21.4578 56.1792 21.13C55.8942 20.8022 55.6764 20.4078 55.5258 19.9467C55.3753 19.4856 55.3 18.97 55.3 18.4C55.3 17.6456 55.4308 16.9881 55.6925 16.4275C55.9542 15.8669 56.3303 15.4317 56.8208 15.1217C57.3114 14.8117 57.9 14.6567 58.5867 14.6567C59.3533 14.6567 59.9772 14.8356 60.4583 15.1933C60.9394 15.5511 61.2744 16.0311 61.4633 16.6333L60.7267 16.8133C60.5678 16.3733 60.3092 16.0219 59.9508 15.7591C59.5925 15.4964 59.1478 15.3644 58.6167 15.3633C58.0533 15.3611 57.585 15.4878 57.2117 15.7433C56.8383 15.9989 56.5575 16.3555 56.3691 16.8133C56.1808 17.2711 56.0844 17.8 56.08 18.4C56.0755 19 56.1675 19.5278 56.3558 19.9833C56.5441 20.4389 56.8272 20.7956 57.205 21.0533C57.5828 21.3111 58.0533 21.4411 58.6167 21.4434C59.1311 21.4456 59.5569 21.3461 59.8942 21.145C60.2314 20.9439 60.4872 20.6572 60.6617 20.285C60.8361 19.9128 60.9356 19.4711 60.96 18.96H59.3V18.33H61.73C61.7389 18.4067 61.7444 18.4878 61.7467 18.5733C61.7489 18.6589 61.75 18.72 61.75 18.7567C61.75 19.4044 61.6333 19.9844 61.4 20.4967C61.1667 21.0089 60.8155 21.4125 60.3467 21.7075C59.8778 22.0025 59.2911 22.15 58.5867 22.15ZM65.0333 22.15C64.5089 22.15 64.0536 22.0336 63.6675 21.8008C63.2814 21.5681 62.9819 21.2397 62.7692 20.8158C62.5564 20.3919 62.45 19.8944 62.45 19.3233C62.45 18.7333 62.555 18.2233 62.765 17.7933C62.975 17.3633 63.2711 17.0319 63.6533 16.7992C64.0356 16.5664 64.4867 16.45 65.0067 16.45C65.54 16.45 65.995 16.5722 66.3717 16.8167C66.7483 17.0611 67.0333 17.4117 67.2267 17.8683C67.42 18.325 67.5072 18.8711 67.4883 19.5067H66.74V19.2467C66.7267 18.5456 66.5758 18.0164 66.2875 17.6592C65.9992 17.3019 65.5789 17.1233 65.0267 17.1233C64.4455 17.1233 64.0008 17.3119 63.6925 17.6892C63.3841 18.0664 63.23 18.6033 63.23 19.3C63.23 19.9811 63.3841 20.5092 63.6925 20.8842C64.0008 21.2592 64.4389 21.4467 65.0067 21.4467C65.3933 21.4467 65.7306 21.3572 66.0183 21.1783C66.3061 20.9995 66.5333 20.7422 66.7 20.4067L67.3867 20.67C67.1722 21.1411 66.8575 21.5056 66.4425 21.7633C66.0275 22.0211 65.5578 22.15 65.0333 22.15ZM62.97 19.5067V18.89H67.0967V19.5067H62.97ZM71.535 22C71.2305 22.0633 70.9308 22.0886 70.6358 22.0758C70.3408 22.0631 70.0775 21.9997 69.8458 21.8858C69.6142 21.7719 69.4394 21.5956 69.3217 21.3567C69.2239 21.1567 69.1706 20.9536 69.1617 20.7475C69.1528 20.5414 69.1483 20.3067 69.1483 20.0433V15.1H69.8817V20.0167C69.8817 20.2422 69.8842 20.4308 69.8892 20.5825C69.8942 20.7342 69.9283 20.8689 69.9917 20.9867C70.1117 21.21 70.3022 21.3428 70.5633 21.385C70.8244 21.4272 71.1483 21.4178 71.535 21.3567V22ZM67.995 17.23V16.6H71.535V17.23H67.995ZM74.7 15.5767V14.75H75.4333V15.5767H74.7ZM74.7 22V16.6H75.4333V22H74.7ZM79.875 22C79.5705 22.0633 79.2708 22.0886 78.9758 22.0758C78.6808 22.0631 78.4175 21.9997 78.1858 21.8858C77.9542 21.7719 77.7794 21.5956 77.6617 21.3567C77.5639 21.1567 77.5106 20.9536 77.5017 20.7475C77.4928 20.5414 77.4883 20.3067 77.4883 20.0433V15.1H78.2217V20.0167C78.2217 20.2422 78.2242 20.4308 78.2292 20.5825C78.2342 20.7342 78.2683 20.8689 78.3317 20.9867C78.4517 21.21 78.6422 21.3428 78.9033 21.385C79.1644 21.4272 79.4883 21.4178 79.875 21.3567V22ZM76.335 17.23V16.6H79.875V17.23H76.335ZM85.1967 22.15C84.66 22.15 84.2011 22.0283 83.82 21.785C83.4389 21.5417 83.1469 21.2053 82.9442 20.7758C82.7414 20.3464 82.64 19.8522 82.64 19.2933C82.64 18.7278 82.7433 18.2314 82.95 17.8042C83.1567 17.3769 83.4511 17.0444 83.8333 16.8067C84.2156 16.5689 84.67 16.45 85.1967 16.45C85.7355 16.45 86.1958 16.5711 86.5775 16.8133C86.9592 17.0556 87.2511 17.3903 87.4533 17.8175C87.6555 18.2447 87.7567 18.7367 87.7567 19.2933C87.7567 19.86 87.6547 20.3575 87.4508 20.7858C87.2469 21.2142 86.9536 21.5486 86.5708 21.7892C86.188 22.0297 85.73 22.15 85.1967 22.15ZM85.1967 21.4467C85.7956 21.4467 86.2419 21.247 86.5358 20.8475C86.8297 20.4481 86.9767 19.93 86.9767 19.2933C86.9767 18.6422 86.8286 18.1228 86.5325 17.735C86.2364 17.3472 85.7911 17.1533 85.1967 17.1533C84.7933 17.1533 84.4605 17.2444 84.1983 17.4267C83.9361 17.6089 83.7408 17.8605 83.6125 18.1817C83.4841 18.5028 83.42 18.8733 83.42 19.2933C83.42 19.9433 83.5703 20.4647 83.8708 20.8575C84.1714 21.2503 84.6133 21.4467 85.1967 21.4467ZM92.755 22V19.2433C92.755 18.9444 92.7267 18.6692 92.67 18.4175C92.6133 18.1658 92.5222 17.9461 92.3967 17.7583C92.2711 17.5705 92.1092 17.425 91.9108 17.3216C91.7125 17.2183 91.4717 17.1666 91.1883 17.1666C90.9294 17.1666 90.7005 17.2111 90.5017 17.3C90.3028 17.3889 90.1361 17.5175 90.0016 17.6858C89.8672 17.8542 89.7653 18.0589 89.6958 18.3C89.6264 18.5411 89.5916 18.8144 89.5916 19.12L89.0717 19.0033C89.0717 18.45 89.1683 17.985 89.3617 17.6083C89.555 17.2317 89.8214 16.9472 90.1608 16.755C90.5003 16.5628 90.8905 16.4667 91.3317 16.4667C91.655 16.4667 91.9372 16.5161 92.1783 16.615C92.4194 16.7139 92.6241 16.8483 92.7925 17.0183C92.9608 17.1883 93.0966 17.383 93.2 17.6025C93.3033 17.8219 93.3783 18.0539 93.425 18.2983C93.4717 18.5428 93.495 18.7867 93.495 19.03V22H92.755ZM88.8517 22V16.6H89.515V17.93H89.5916V22H88.8517Z" fill="white"/>
</g>
<path d="M60.1403 39.21C59.4862 39.21 58.8729 39.0943 58.3005 38.8629C57.728 38.6315 57.2266 38.2922 56.7961 37.845C56.3656 37.3978 56.0286 36.8485 55.7852 36.1971C55.5417 35.5457 55.42 34.8 55.42 33.96C55.42 32.8594 55.6259 31.9179 56.0377 31.1355C56.4496 30.3531 57.0117 29.7536 57.7242 29.3371C58.4366 28.9206 59.242 28.7123 60.1403 28.7123C61.3817 28.7123 62.3648 29.0007 63.0896 29.5774C63.8145 30.1541 64.3045 30.9609 64.5596 31.9976L62.8423 32.2706C62.6502 31.6756 62.3366 31.2 61.9014 30.8438C61.4662 30.4876 60.9142 30.3075 60.2453 30.3036C59.5687 30.2959 59.0057 30.4434 58.5566 30.7464C58.1074 31.0493 57.7702 31.4769 57.5451 32.0292C57.3199 32.5814 57.2065 33.225 57.205 33.96C57.2034 34.695 57.3152 35.3347 57.5404 35.8792C57.7656 36.4236 58.1035 36.8477 58.5542 37.1514C59.005 37.4552 59.5687 37.6109 60.2453 37.6187C60.7509 37.6265 61.1948 37.5357 61.5771 37.3463C61.9594 37.1569 62.272 36.8693 62.5151 36.4835C62.7582 36.0977 62.9225 35.6159 63.008 35.038H61.23V33.715H64.8C64.8101 33.7873 64.8173 33.8962 64.8216 34.0417C64.8258 34.1871 64.828 34.275 64.828 34.3053C64.828 35.2566 64.6402 36.1018 64.2645 36.8411C63.8888 37.5804 63.3512 38.16 62.6516 38.58C61.952 39 61.1149 39.21 60.1403 39.21ZM69.5693 39.21C68.811 39.21 68.1499 39.0397 67.586 38.699C67.0221 38.3583 66.5848 37.888 66.2741 37.2879C65.9634 36.6879 65.808 35.9978 65.808 35.2177C65.808 34.4282 65.9667 33.7339 66.284 33.1346C66.6013 32.5353 67.0421 32.0681 67.6064 31.7328C68.1707 31.3976 68.825 31.23 69.5693 31.23C70.3284 31.23 70.9909 31.4001 71.5567 31.7404C72.1226 32.0807 72.5616 32.5505 72.8739 33.1498C73.1862 33.749 73.3423 34.4383 73.3423 35.2177C73.3423 36.004 73.185 36.697 72.8704 37.2967C72.5558 37.8963 72.1154 38.3651 71.5492 38.7031C70.9829 39.041 70.323 39.21 69.5693 39.21ZM69.5693 37.6304C70.2374 37.6304 70.7358 37.4056 71.0644 36.956C71.393 36.5065 71.5573 35.927 71.5573 35.2177C71.5573 34.4858 71.3909 33.9015 71.058 33.4647C70.7251 33.028 70.2289 32.8096 69.5693 32.8096C69.1167 32.8096 68.7447 32.9115 68.4534 33.1153C68.1621 33.3191 67.9459 33.6014 67.8047 33.9623C67.6636 34.3232 67.593 34.7417 67.593 35.2177C67.593 35.9527 67.7602 36.5385 68.0946 36.9753C68.4291 37.412 68.9207 37.6304 69.5693 37.6304ZM78.2213 39.21C77.463 39.21 76.8019 39.0397 76.238 38.699C75.6741 38.3583 75.2368 37.888 74.9261 37.2879C74.6154 36.6879 74.46 35.9978 74.46 35.2177C74.46 34.4282 74.6187 33.7339 74.936 33.1346C75.2533 32.5353 75.6941 32.0681 76.2584 31.7328C76.8227 31.3976 77.477 31.23 78.2213 31.23C78.9804 31.23 79.6429 31.4001 80.2087 31.7404C80.7746 32.0807 81.2136 32.5505 81.5259 33.1498C81.8382 33.749 81.9943 34.4383 81.9943 35.2177C81.9943 36.004 81.837 36.697 81.5224 37.2967C81.2078 37.8963 80.7674 38.3651 80.2012 38.7031C79.6349 39.041 78.975 39.21 78.2213 39.21ZM78.2213 37.6304C78.8894 37.6304 79.3878 37.4056 79.7164 36.956C80.045 36.5065 80.2093 35.927 80.2093 35.2177C80.2093 34.4858 80.0429 33.9015 79.71 33.4647C79.3771 33.028 78.8809 32.8096 78.2213 32.8096C77.7687 32.8096 77.3967 32.9115 77.1054 33.1153C76.8141 33.3191 76.5979 33.6014 76.4567 33.9623C76.3156 34.3232 76.245 34.7417 76.245 35.2177C76.245 35.9527 76.4122 36.5385 76.7466 36.9753C77.0811 37.412 77.5727 37.6304 78.2213 37.6304ZM86.7077 42.57C86.2892 42.57 85.8879 42.5041 85.5037 42.3723C85.1194 42.2404 84.7729 42.052 84.4642 41.807C84.1554 41.562 83.9022 41.268 83.7047 40.925L85.261 40.155C85.4041 40.428 85.6081 40.6312 85.8729 40.7646C86.1377 40.898 86.4199 40.9647 86.7193 40.9647C87.0693 40.9647 87.381 40.9036 87.6544 40.7815C87.9278 40.6594 88.1405 40.4778 88.2926 40.2367C88.4447 39.9956 88.5168 39.6961 88.509 39.3383V37.1847H88.7167V31.44H90.196V39.3616C90.196 39.5553 90.1884 39.7391 90.1732 39.9129C90.1581 40.0867 90.1307 40.2592 90.091 40.4303C89.9774 40.9172 89.7628 41.3182 89.447 41.6332C89.1312 41.9482 88.7384 42.1831 88.2687 42.3378C87.7989 42.4926 87.2786 42.57 86.7077 42.57ZM86.5653 39.21C85.8669 39.21 85.2592 39.0348 84.7424 38.6844C84.2256 38.334 83.8246 37.8576 83.5396 37.2552C83.2545 36.6529 83.112 35.9737 83.112 35.2177C83.112 34.4523 83.2561 33.7696 83.5442 33.1696C83.8324 32.5695 84.2396 32.0963 84.7657 31.7497C85.2919 31.4032 85.9128 31.23 86.6283 31.23C87.3447 31.23 87.9472 31.4044 88.4361 31.7533C88.9249 32.1021 89.2949 32.5773 89.5462 33.1789C89.7974 33.7805 89.923 34.4601 89.923 35.2177C89.923 35.9729 89.7966 36.6517 89.5438 37.2541C89.291 37.8565 88.9158 38.3331 88.418 38.6838C87.9202 39.0346 87.3027 39.21 86.5653 39.21ZM86.822 37.7004C87.2747 37.7004 87.6402 37.5957 87.9187 37.3865C88.1971 37.1773 88.3997 36.8858 88.5265 36.5121C88.6533 36.1384 88.7167 35.7069 88.7167 35.2177C88.7167 34.7269 88.6531 34.295 88.5259 33.9221C88.3988 33.5491 88.1998 33.2588 87.9292 33.0511C87.6585 32.8435 87.3089 32.7396 86.8803 32.7396C86.4261 32.7396 86.0524 32.8509 85.7591 33.0733C85.4659 33.2958 85.2489 33.5944 85.1081 33.9693C84.9674 34.3442 84.897 34.7603 84.897 35.2177C84.897 35.6797 84.9662 36.0985 85.1046 36.4742C85.2431 36.8498 85.4541 37.1481 85.7376 37.369C86.0211 37.5899 86.3825 37.7004 86.822 37.7004ZM92.296 39V28.71H93.9806V39H92.296ZM99.5177 39.21C98.7531 39.21 98.0819 39.0441 97.504 38.7124C96.9261 38.3807 96.4748 37.921 96.1501 37.3334C95.8254 36.7458 95.663 36.0686 95.663 35.3017C95.663 34.4757 95.8223 33.7582 96.1407 33.1492C96.4592 32.5402 96.9006 32.0681 97.4649 31.7328C98.0292 31.3976 98.6823 31.23 99.4243 31.23C100.206 31.23 100.871 31.4128 101.419 31.7783C101.968 32.1439 102.375 32.6603 102.643 33.3277C102.91 33.995 103.01 34.7829 102.944 35.6913H101.27V35.0753C101.265 34.2524 101.121 33.6516 100.836 33.2728C100.551 32.894 100.104 32.7046 99.4943 32.7046C98.8044 32.7046 98.2909 32.9185 97.9537 33.3463C97.6166 33.7741 97.448 34.3987 97.448 35.22C97.448 35.9869 97.6166 36.5803 97.9537 37.0004C98.2909 37.4204 98.7811 37.6304 99.4243 37.6304C99.8397 37.6304 100.197 37.5378 100.498 37.3527C100.798 37.1676 101.03 36.9008 101.193 36.5523L102.861 37.054C102.573 37.7369 102.126 38.2669 101.52 38.6442C100.915 39.0214 100.247 39.21 99.5177 39.21ZM96.916 35.6913V34.415H102.119V35.6913H96.916ZM107.311 39V28.92H111.476C111.574 28.92 111.701 28.9235 111.856 28.9305C112.011 28.9375 112.153 28.9527 112.283 28.976C112.866 29.0662 113.347 29.2609 113.728 29.5599C114.108 29.859 114.39 30.2352 114.574 30.6887C114.758 31.1421 114.85 31.6461 114.85 32.2007C114.85 32.7552 114.757 33.2592 114.571 33.7127C114.385 34.1661 114.102 34.5424 113.722 34.8414C113.341 35.1405 112.862 35.3351 112.283 35.4253C112.153 35.444 112.01 35.458 111.853 35.4673C111.696 35.4767 111.57 35.4813 111.476 35.4813H108.996V39H107.311ZM108.996 33.9017H111.406C111.501 33.9017 111.606 33.897 111.722 33.8877C111.837 33.8783 111.945 33.8605 112.045 33.834C112.324 33.7632 112.543 33.6394 112.704 33.4624C112.865 33.2855 112.978 33.0846 113.046 32.8598C113.113 32.6351 113.147 32.4153 113.147 32.2007C113.147 31.986 113.113 31.7663 113.046 31.5415C112.978 31.3167 112.865 31.1158 112.704 30.9389C112.543 30.7619 112.324 30.6381 112.045 30.5673C111.945 30.5401 111.837 30.522 111.722 30.5131C111.606 30.5041 111.501 30.4996 111.406 30.4996H108.996V33.9017ZM116.39 39V28.71H118.075V39H116.39ZM122.293 39.21C121.744 39.21 121.281 39.1064 120.903 38.8991C120.526 38.6918 120.24 38.4153 120.047 38.0696C119.854 37.7239 119.757 37.3433 119.757 36.928C119.757 36.5624 119.818 36.2348 119.94 35.9451C120.061 35.6554 120.248 35.4041 120.501 35.1914C120.753 34.9787 121.078 34.8039 121.477 34.667C121.783 34.5667 122.14 34.4778 122.546 34.4004C122.952 34.323 123.395 34.2503 123.874 34.1823C124.353 34.1142 124.855 34.0409 125.38 33.9623L124.774 34.3007C124.778 33.7788 124.661 33.394 124.424 33.1462C124.187 32.8985 123.786 32.7746 123.22 32.7746C122.881 32.7746 122.553 32.8546 122.236 33.0144C121.919 33.1742 121.697 33.4467 121.57 33.8317L120.028 33.3487C120.215 32.7109 120.572 32.1983 121.098 31.811C121.624 31.4237 122.333 31.23 123.224 31.23C123.897 31.23 124.488 31.3393 124.998 31.5578C125.507 31.7764 125.887 32.1361 126.136 32.637C126.272 32.9014 126.353 33.1725 126.381 33.4502C126.409 33.7278 126.423 34.0316 126.423 34.3613V39H124.944V37.3597L125.189 37.6303C124.848 38.174 124.45 38.5732 123.995 38.8279C123.54 39.0826 122.972 39.21 122.293 39.21ZM122.627 37.8637C123.01 37.8637 123.336 37.7958 123.606 37.6601C123.876 37.5244 124.092 37.3595 124.253 37.1654C124.415 36.9714 124.523 36.7864 124.578 36.6107C124.666 36.396 124.716 36.15 124.73 35.8727C124.744 35.5955 124.75 35.3701 124.75 35.1967L125.268 35.353C124.757 35.4347 124.318 35.505 123.954 35.5642C123.59 35.6233 123.278 35.6795 123.018 35.7327C122.758 35.786 122.527 35.8461 122.326 35.913C122.132 35.9845 121.968 36.0664 121.832 36.1586C121.696 36.2507 121.592 36.3579 121.52 36.48C121.447 36.6021 121.411 36.7444 121.411 36.907C121.411 37.0913 121.457 37.2556 121.55 37.3999C121.642 37.5442 121.778 37.6576 121.958 37.74C122.138 37.8225 122.361 37.8637 122.627 37.8637ZM128.815 42.36L130.273 38.3653L130.299 39.5413L127.004 31.44H128.757L131.095 37.4344H130.647L132.922 31.44H134.613L130.395 42.36H128.815Z" fill="white"/>
</svg>
