<svg width="40" height="40" viewBox="0 0 40 40" fill="none" xmlns="http://www.w3.org/2000/svg">
<rect width="40" height="40" rx="20" fill="#191C1D" fill-opacity="0.05"/>
<path d="M20.0001 28.3332C18.8473 28.3332 17.764 28.1144 16.7501 27.6769C15.7362 27.2394 14.8542 26.6457 14.1042 25.8957C13.3542 25.1457 12.7605 24.2637 12.323 23.2498C11.8855 22.2359 11.6667 21.1526 11.6667 19.9998C11.6667 18.8471 11.8855 17.7637 12.323 16.7498C12.7605 15.7359 13.3542 14.854 14.1042 14.104C14.8542 13.354 15.7362 12.7603 16.7501 12.3228C17.764 11.8853 18.8473 11.6665 20.0001 11.6665C21.1529 11.6665 22.2362 11.8853 23.2501 12.3228C24.264 12.7603 25.1459 13.354 25.8959 14.104C26.6459 14.854 27.2397 15.7359 27.6772 16.7498C28.1147 17.7637 28.3334 18.8471 28.3334 19.9998C28.3334 21.1526 28.1147 22.2359 27.6772 23.2498C27.2397 24.2637 26.6459 25.1457 25.8959 25.8957C25.1459 26.6457 24.264 27.2394 23.2501 27.6769C22.2362 28.1144 21.1529 28.3332 20.0001 28.3332ZM19.1667 26.6248V24.9998C18.7084 24.9998 18.3161 24.8366 17.9897 24.5103C17.6633 24.1839 17.5001 23.7915 17.5001 23.3332V22.4998L13.5001 18.4998C13.4584 18.7498 13.4202 18.9998 13.3855 19.2498C13.3508 19.4998 13.3334 19.7498 13.3334 19.9998C13.3334 21.6804 13.8855 23.1526 14.9897 24.4165C16.0938 25.6804 17.4862 26.4165 19.1667 26.6248ZM24.9167 24.4998C25.4862 23.8748 25.9202 23.1769 26.2188 22.4061C26.5174 21.6353 26.6667 20.8332 26.6667 19.9998C26.6667 18.6387 26.2883 17.3957 25.5313 16.2707C24.7744 15.1457 23.764 14.3332 22.5001 13.8332V14.1665C22.5001 14.6248 22.3369 15.0172 22.0105 15.3436C21.6841 15.67 21.2917 15.8332 20.8334 15.8332H19.1667V17.4998C19.1667 17.7359 19.0869 17.9339 18.9272 18.0936C18.7674 18.2533 18.5695 18.3332 18.3334 18.3332H16.6667V19.9998H21.6667C21.9029 19.9998 22.1008 20.0797 22.2605 20.2394C22.4202 20.3991 22.5001 20.5971 22.5001 20.8332V23.3332H23.3334C23.6945 23.3332 24.0209 23.4408 24.3126 23.6561C24.6042 23.8714 24.8056 24.1526 24.9167 24.4998Z" fill="#FF5234"/>
</svg>
