<svg width="40" height="40" viewBox="0 0 40 40" fill="none" xmlns="http://www.w3.org/2000/svg">
<rect width="40" height="40" rx="20" fill="#FF3F1E" fill-opacity="0.1"/>
<path d="M20 21C19.0167 21 18.1875 20.6625 17.5125 19.9875C16.8375 19.3125 16.5 18.4833 16.5 17.5C16.5 16.5167 16.8375 15.6875 17.5125 15.0125C18.1875 14.3375 19.0167 14 20 14C20.9833 14 21.8125 14.3375 22.4875 15.0125C23.1625 15.6875 23.5 16.5167 23.5 17.5C23.5 18.4833 23.1625 19.3125 22.4875 19.9875C21.8125 20.6625 20.9833 21 20 21ZM20 19C20.4333 19 20.7917 18.8583 21.075 18.575C21.3583 18.2917 21.5 17.9333 21.5 17.5C21.5 17.0667 21.3583 16.7083 21.075 16.425C20.7917 16.1417 20.4333 16 20 16C19.5667 16 19.2083 16.1417 18.925 16.425C18.6417 16.7083 18.5 17.0667 18.5 17.5C18.5 17.9333 18.6417 18.2917 18.925 18.575C19.2083 18.8583 19.5667 19 20 19ZM20 30C17.6833 29.4167 15.7708 28.0875 14.2625 26.0125C12.7542 23.9375 12 21.6333 12 19.1V13L20 10L28 13V19.1C28 21.6333 27.2458 23.9375 25.7375 26.0125C24.2292 28.0875 22.3167 29.4167 20 30ZM20 12.125L14 14.375V19.1C14 20 14.125 20.875 14.375 21.725C14.625 22.575 14.9667 23.375 15.4 24.125C16.1 23.775 16.8333 23.5 17.6 23.3C18.3667 23.1 19.1667 23 20 23C20.8333 23 21.6333 23.1 22.4 23.3C23.1667 23.5 23.9 23.775 24.6 24.125C25.0333 23.375 25.375 22.575 25.625 21.725C25.875 20.875 26 20 26 19.1V14.375L20 12.125ZM20 25C19.4 25 18.8167 25.0667 18.25 25.2C17.6833 25.3333 17.1417 25.5167 16.625 25.75C17.1083 26.25 17.6333 26.6833 18.2 27.05C18.7667 27.4167 19.3667 27.7 20 27.9C20.6333 27.7 21.2333 27.4167 21.8 27.05C22.3667 26.6833 22.8917 26.25 23.375 25.75C22.8583 25.5167 22.3167 25.3333 21.75 25.2C21.1833 25.0667 20.6 25 20 25Z" fill="#FF3F1E"/>
</svg>
