<svg width="40" height="40" viewBox="0 0 40 40" fill="none" xmlns="http://www.w3.org/2000/svg">
<rect width="40" height="40" rx="20" fill="#FF3F1E" fill-opacity="0.1"/>
<path d="M20 30C18.6167 30 17.3167 29.7375 16.1 29.2125C14.8833 28.6875 13.825 27.975 12.925 27.075C12.025 26.175 11.3125 25.1167 10.7875 23.9C10.2625 22.6833 10 21.3833 10 20C10 18.6167 10.2625 17.3167 10.7875 16.1C11.3125 14.8833 12.025 13.825 12.925 12.925C13.825 12.025 14.8833 11.3125 16.1 10.7875C17.3167 10.2625 18.6167 10 20 10H21V18.275C21.3 18.4583 21.5417 18.6958 21.725 18.9875C21.9083 19.2792 22 19.6167 22 20C22 20.55 21.8042 21.0208 21.4125 21.4125C21.0208 21.8042 20.55 22 20 22C19.45 22 18.9792 21.8042 18.5875 21.4125C18.1958 21.0208 18 20.55 18 20C18 19.6167 18.0917 19.275 18.275 18.975C18.4583 18.675 18.7 18.4417 19 18.275V16.125C18.1333 16.3583 17.4167 16.8292 16.85 17.5375C16.2833 18.2458 16 19.0667 16 20C16 21.1 16.3917 22.0417 17.175 22.825C17.9583 23.6083 18.9 24 20 24C21.1 24 22.0417 23.6083 22.825 22.825C23.6083 22.0417 24 21.1 24 20C24 19.4 23.8792 18.8458 23.6375 18.3375C23.3958 17.8292 23.0667 17.3833 22.65 17L24.075 15.575C24.6583 16.125 25.125 16.7792 25.475 17.5375C25.825 18.2958 26 19.1167 26 20C26 21.6667 25.4167 23.0833 24.25 24.25C23.0833 25.4167 21.6667 26 20 26C18.3333 26 16.9167 25.4167 15.75 24.25C14.5833 23.0833 14 21.6667 14 20C14 18.5 14.475 17.1958 15.425 16.0875C16.375 14.9792 17.5667 14.3083 19 14.075V12.05C17.0167 12.3 15.3542 13.175 14.0125 14.675C12.6708 16.175 12 17.95 12 20C12 22.2333 12.775 24.125 14.325 25.675C15.875 27.225 17.7667 28 20 28C22.2333 28 24.125 27.225 25.675 25.675C27.225 24.125 28 22.2333 28 20C28 18.85 27.775 17.775 27.325 16.775C26.875 15.775 26.2583 14.9083 25.475 14.175L26.9 12.75C27.85 13.6667 28.6042 14.7458 29.1625 15.9875C29.7208 17.2292 30 18.5667 30 20C30 21.3833 29.7375 22.6833 29.2125 23.9C28.6875 25.1167 27.975 26.175 27.075 27.075C26.175 27.975 25.1167 28.6875 23.9 29.2125C22.6833 29.7375 21.3833 30 20 30Z" fill="#FF3F1E"/>
</svg>
