<svg width="191" height="56" viewBox="0 0 191 56" fill="none" xmlns="http://www.w3.org/2000/svg">
<path d="M0 0H190.92V56H48C21.4904 56 0 34.5097 0 8V0Z" fill="#FF3F1E"/>
<path d="M16.32 34L20.288 22.48H21.8506L25.8186 34H24.592L20.8267 23.136H21.2853L17.5466 34H16.32ZM18.0907 31.2053V30.1013H24.0427V31.2053H18.0907ZM27.04 34L31.008 22.48H32.5706L36.5386 34H35.312L31.5467 23.136H32.0053L28.2666 34H27.04ZM28.8107 31.2053V30.1013H34.7627V31.2053H28.8107ZM39.784 34L35.816 22.48H37.0426L40.552 32.6667L44.088 22.48H45.3146L41.3466 34H39.784ZM50.8587 34.24C49.7102 34.24 48.7418 33.9858 47.9533 33.4773C47.1649 32.9689 46.5676 32.264 46.1613 31.3627C45.7551 30.4613 45.552 29.4204 45.552 28.24C45.552 27.0596 45.7551 26.0187 46.1613 25.1173C46.5676 24.216 47.1649 23.5111 47.9533 23.0027C48.7418 22.4942 49.7102 22.24 50.8587 22.24C52.0071 22.24 52.9755 22.4942 53.764 23.0027C54.5524 23.5111 55.1498 24.216 55.556 25.1173C55.9622 26.0187 56.1653 27.0596 56.1653 28.24C56.1653 29.4204 55.9622 30.4613 55.556 31.3627C55.1498 32.264 54.5524 32.9689 53.764 33.4773C52.9755 33.9858 52.0071 34.24 50.8587 34.24ZM50.8587 33.1094C51.76 33.1129 52.5111 32.9085 53.112 32.496C53.7129 32.0836 54.164 31.5111 54.4653 30.7787C54.7667 30.0462 54.9173 29.2 54.9173 28.24C54.9173 27.28 54.7667 26.4347 54.4653 25.704C54.164 24.9733 53.7129 24.4026 53.112 23.992C52.5111 23.5813 51.76 23.3742 50.8587 23.3706C49.9573 23.3671 49.208 23.5706 48.6106 23.9813C48.0133 24.392 47.564 24.9644 47.2626 25.6987C46.9613 26.4329 46.8071 27.28 46.8 28.24C46.7929 29.2 46.94 30.0445 47.2413 30.7733C47.5426 31.5022 47.9955 32.0729 48.6 32.4854C49.2044 32.8978 49.9573 33.1058 50.8587 33.1094ZM57.768 34V22.48H62.216C62.328 22.48 62.4547 22.484 62.596 22.492C62.7373 22.5 62.8809 22.5173 63.0266 22.544C63.6258 22.6364 64.1346 22.8462 64.5533 23.1733C64.972 23.5004 65.2898 23.9124 65.5066 24.4093C65.7235 24.9062 65.832 25.4542 65.832 26.0533C65.832 26.9227 65.6026 27.6778 65.144 28.3187C64.6853 28.9595 64.0293 29.3635 63.176 29.5307L62.7707 29.6267H58.9413V34H57.768ZM64.744 34L62.472 29.312L63.6026 28.88L66.0986 34H64.744ZM58.9413 28.5013H62.184C62.2818 28.5013 62.3947 28.496 62.5227 28.4853C62.6507 28.4747 62.776 28.4569 62.8987 28.432C63.2915 28.3485 63.6151 28.1862 63.8693 27.9453C64.1236 27.7045 64.3124 27.4182 64.436 27.0867C64.5596 26.7551 64.6213 26.4107 64.6213 26.0533C64.6213 25.696 64.5596 25.3515 64.436 25.02C64.3124 24.6884 64.1236 24.4022 63.8693 24.1613C63.6151 23.9204 63.2915 23.7582 62.8987 23.6746C62.776 23.6462 62.6507 23.6275 62.5227 23.6186C62.3947 23.6098 62.2818 23.6053 62.184 23.6053H58.9413V28.5013ZM68.016 23.7227V22.4H69.1893V23.7227H68.016ZM68.016 34V25.36H69.1893V34H68.016ZM74.9467 34.24C74.1378 34.24 73.448 34.0391 72.8773 33.6373C72.3067 33.2356 71.8698 32.6898 71.5667 32C71.2636 31.3102 71.112 30.5333 71.112 29.6693C71.112 28.8107 71.2627 28.0378 71.564 27.3507C71.8653 26.6636 72.2987 26.12 72.864 25.72C73.4293 25.32 74.1075 25.12 74.8987 25.12C75.7093 25.12 76.392 25.3173 76.9467 25.712C77.5013 26.1067 77.9209 26.6471 78.2053 27.3333C78.4898 28.0196 78.632 28.7982 78.632 29.6693C78.632 30.5298 78.4902 31.3049 78.2067 31.9947C77.9231 32.6844 77.5075 33.2311 76.96 33.6347C76.4124 34.0382 75.7413 34.24 74.9467 34.24ZM75.064 33.1467C75.6773 33.1467 76.1844 32.9965 76.5853 32.696C76.9862 32.3956 77.2845 31.9831 77.48 31.4587C77.6756 30.9342 77.7733 30.3378 77.7733 29.6693C77.7733 28.9938 77.6747 28.3955 77.4773 27.8747C77.28 27.3538 76.9827 26.9466 76.5853 26.6533C76.188 26.36 75.6898 26.2133 75.0907 26.2133C74.4702 26.2133 73.9578 26.3658 73.5533 26.6706C73.1489 26.9755 72.8489 27.3889 72.6533 27.9107C72.4577 28.4324 72.36 29.0187 72.36 29.6693C72.36 30.3253 72.4604 30.916 72.6613 31.4413C72.8622 31.9667 73.1626 32.3822 73.5626 32.688C73.9626 32.9938 74.4631 33.1467 75.064 33.1467ZM77.7733 34V27.4933H77.6507V22.48H78.8293V34H77.7733ZM84.7253 34.24C83.8862 34.24 83.1578 34.0538 82.54 33.6813C81.9222 33.3089 81.4431 32.7836 81.1027 32.1053C80.7622 31.4271 80.592 30.6311 80.592 29.7173C80.592 28.7733 80.76 27.9573 81.096 27.2693C81.432 26.5813 81.9058 26.0511 82.5173 25.6787C83.1289 25.3062 83.8507 25.12 84.6827 25.12C85.536 25.12 86.264 25.3156 86.8667 25.7067C87.4693 26.0978 87.9253 26.6587 88.2347 27.3893C88.544 28.12 88.6835 28.9938 88.6533 30.0107H87.456V29.5947C87.4347 28.4729 87.1933 27.6262 86.732 27.0547C86.2707 26.4831 85.5982 26.1973 84.7147 26.1973C83.7849 26.1973 83.0733 26.4991 82.58 27.1026C82.0866 27.7062 81.84 28.5653 81.84 29.68C81.84 30.7698 82.0866 31.6147 82.58 32.2147C83.0733 32.8147 83.7742 33.1147 84.6827 33.1147C85.3013 33.1147 85.8409 32.9716 86.3013 32.6854C86.7618 32.3991 87.1253 31.9876 87.392 31.4507L88.4907 31.872C88.1475 32.6258 87.644 33.2089 86.98 33.6213C86.316 34.0338 85.5644 34.24 84.7253 34.24ZM81.424 30.0107V29.024H88.0267V30.0107H81.424ZM93.624 34V22.48H100.824V23.6053H94.7973V27.5947H99.864V28.72H94.7973V32.8747H100.824V34H93.624ZM101.784 34L105.16 29.632L101.859 25.36H103.267L105.848 28.7307L108.408 25.36H109.816L106.515 29.632L109.896 34H108.477L105.848 30.5333L103.203 34H101.784ZM115.053 34.24C114.259 34.24 113.588 34.0382 113.04 33.6347C112.492 33.2311 112.077 32.6844 111.793 31.9947C111.51 31.3049 111.368 30.5298 111.368 29.6693C111.368 28.7982 111.51 28.0196 111.795 27.3333C112.079 26.6471 112.499 26.1067 113.053 25.712C113.608 25.3173 114.291 25.12 115.101 25.12C115.892 25.12 116.571 25.32 117.136 25.72C117.701 26.12 118.135 26.6636 118.436 27.3507C118.737 28.0378 118.888 28.8107 118.888 29.6693C118.888 30.5333 118.736 31.3102 118.433 32C118.13 32.6898 117.693 33.2356 117.123 33.6373C116.552 34.0391 115.862 34.24 115.053 34.24ZM111.171 37.84V25.36H112.227V31.8667H112.349V37.84H111.171ZM114.936 33.1467C115.537 33.1467 116.037 32.9938 116.437 32.688C116.837 32.3822 117.138 31.9667 117.339 31.4413C117.54 30.916 117.64 30.3253 117.64 29.6693C117.64 29.0187 117.541 28.4324 117.344 27.9107C117.147 27.3889 116.847 26.9755 116.444 26.6706C116.041 26.3658 115.53 26.2133 114.909 26.2133C114.31 26.2133 113.812 26.36 113.415 26.6533C113.017 26.9466 112.72 27.3538 112.523 27.8747C112.325 28.3955 112.227 28.9938 112.227 29.6693C112.227 30.3378 112.324 30.9342 112.52 31.4587C112.716 31.9831 113.014 32.3956 113.415 32.696C113.816 32.9965 114.323 33.1467 114.936 33.1467ZM124.301 34.24C123.462 34.24 122.734 34.0538 122.116 33.6813C121.498 33.3089 121.019 32.7836 120.679 32.1053C120.338 31.4271 120.168 30.6311 120.168 29.7173C120.168 28.7733 120.336 27.9573 120.672 27.2693C121.008 26.5813 121.482 26.0511 122.093 25.6787C122.705 25.3062 123.427 25.12 124.259 25.12C125.112 25.12 125.84 25.3156 126.443 25.7067C127.045 26.0978 127.501 26.6587 127.811 27.3893C128.12 28.12 128.26 28.9938 128.229 30.0107H127.032V29.5947C127.011 28.4729 126.769 27.6262 126.308 27.0547C125.847 26.4831 125.174 26.1973 124.291 26.1973C123.361 26.1973 122.649 26.4991 122.156 27.1026C121.663 27.7062 121.416 28.5653 121.416 29.68C121.416 30.7698 121.663 31.6147 122.156 32.2147C122.649 32.8147 123.35 33.1147 124.259 33.1147C124.877 33.1147 125.417 32.9716 125.877 32.6854C126.338 32.3991 126.701 31.9876 126.968 31.4507L128.067 31.872C127.724 32.6258 127.22 33.2089 126.556 33.6213C125.892 34.0338 125.14 34.24 124.301 34.24ZM121 30.0107V29.024H127.603V30.0107H121ZM130 34V25.36H131.056V27.44L130.848 27.168C130.946 26.912 131.072 26.6756 131.227 26.4587C131.381 26.2418 131.548 26.064 131.728 25.9253C131.954 25.7298 132.215 25.58 132.512 25.476C132.809 25.372 133.109 25.3107 133.413 25.292C133.717 25.2733 133.996 25.296 134.251 25.36V26.464C133.932 26.3857 133.587 26.3675 133.215 26.4093C132.842 26.4511 132.498 26.5991 132.181 26.8533C131.893 27.0809 131.678 27.3498 131.536 27.66C131.394 27.9702 131.299 28.3 131.251 28.6493C131.203 28.9987 131.179 29.3458 131.179 29.6907V34H130ZM135.928 23.7227V22.4H137.101V23.7227H135.928ZM135.928 34V25.36H137.101V34H135.928ZM143.157 34.24C142.318 34.24 141.59 34.0538 140.972 33.6813C140.354 33.3089 139.875 32.7836 139.535 32.1053C139.194 31.4271 139.024 30.6311 139.024 29.7173C139.024 28.7733 139.192 27.9573 139.528 27.2693C139.864 26.5813 140.338 26.0511 140.949 25.6787C141.561 25.3062 142.283 25.12 143.115 25.12C143.968 25.12 144.696 25.3156 145.299 25.7067C145.901 26.0978 146.357 26.6587 146.667 27.3893C146.976 28.12 147.116 28.9938 147.085 30.0107H145.888V29.5947C145.867 28.4729 145.625 27.6262 145.164 27.0547C144.703 26.4831 144.03 26.1973 143.147 26.1973C142.217 26.1973 141.505 26.4991 141.012 27.1026C140.519 27.7062 140.272 28.5653 140.272 29.68C140.272 30.7698 140.519 31.6147 141.012 32.2147C141.505 32.8147 142.206 33.1147 143.115 33.1147C143.733 33.1147 144.273 32.9716 144.733 32.6854C145.194 32.3991 145.557 31.9876 145.824 31.4507L146.923 31.872C146.58 32.6258 146.076 33.2089 145.412 33.6213C144.748 34.0338 143.996 34.24 143.157 34.24ZM139.856 30.0107V29.024H146.459V30.0107H139.856ZM154.856 34V29.5893C154.856 29.1111 154.811 28.6706 154.72 28.268C154.629 27.8653 154.484 27.5137 154.283 27.2133C154.082 26.9129 153.823 26.68 153.505 26.5146C153.188 26.3493 152.803 26.2666 152.349 26.2666C151.935 26.2666 151.569 26.3378 151.251 26.48C150.932 26.6222 150.666 26.828 150.451 27.0973C150.236 27.3667 150.072 27.6942 149.961 28.08C149.85 28.4658 149.795 28.9031 149.795 29.392L148.963 29.2053C148.963 28.32 149.117 27.576 149.427 26.9733C149.736 26.3707 150.162 25.9156 150.705 25.608C151.248 25.3004 151.873 25.1467 152.579 25.1467C153.096 25.1467 153.548 25.2258 153.933 25.384C154.319 25.5422 154.647 25.7573 154.916 26.0293C155.185 26.3013 155.403 26.6129 155.568 26.964C155.733 27.3151 155.853 27.6862 155.928 28.0773C156.003 28.4684 156.04 28.8587 156.04 29.248V34H154.856ZM148.611 34V25.36H149.672V27.488H149.795V34H148.611ZM161.648 34.24C160.777 34.24 160.041 34.0453 159.44 33.656C158.839 33.2667 158.382 32.7289 158.069 32.0427C157.756 31.3564 157.595 30.5689 157.584 29.68C157.595 28.7733 157.76 27.9778 158.079 27.2933C158.398 26.6089 158.859 26.0756 159.461 25.6933C160.064 25.3111 160.796 25.12 161.659 25.12C162.532 25.12 163.292 25.3329 163.94 25.7587C164.588 26.1844 165.031 26.768 165.269 27.5093L164.117 27.8826C163.915 27.3635 163.594 26.9609 163.156 26.6746C162.718 26.3884 162.215 26.2453 161.648 26.2453C161.012 26.2453 160.486 26.3915 160.072 26.684C159.658 26.9764 159.349 27.3809 159.147 27.8973C158.944 28.4138 158.839 29.008 158.832 29.68C158.843 30.7129 159.083 31.5436 159.553 32.172C160.024 32.8005 160.722 33.1147 161.648 33.1147C162.235 33.1147 162.734 32.9796 163.147 32.7094C163.559 32.4391 163.874 32.0462 164.091 31.5307L165.269 31.8773C164.949 32.6453 164.48 33.2311 163.861 33.6347C163.243 34.0382 162.505 34.24 161.648 34.24ZM170.333 34.24C169.494 34.24 168.766 34.0538 168.148 33.6813C167.53 33.3089 167.051 32.7836 166.711 32.1053C166.37 31.4271 166.2 30.6311 166.2 29.7173C166.2 28.7733 166.368 27.9573 166.704 27.2693C167.04 26.5813 167.514 26.0511 168.125 25.6787C168.737 25.3062 169.459 25.12 170.291 25.12C171.144 25.12 171.872 25.3156 172.475 25.7067C173.077 26.0978 173.533 26.6587 173.843 27.3893C174.152 28.12 174.292 28.9938 174.261 30.0107H173.064V29.5947C173.043 28.4729 172.801 27.6262 172.34 27.0547C171.879 26.4831 171.206 26.1973 170.323 26.1973C169.393 26.1973 168.681 26.4991 168.188 27.1026C167.695 27.7062 167.448 28.5653 167.448 29.68C167.448 30.7698 167.695 31.6147 168.188 32.2147C168.681 32.8147 169.382 33.1147 170.291 33.1147C170.909 33.1147 171.449 32.9716 171.909 32.6854C172.37 32.3991 172.733 31.9876 173 31.4507L174.099 31.872C173.756 32.6258 173.252 33.2089 172.588 33.6213C171.924 34.0338 171.172 34.24 170.333 34.24ZM167.032 30.0107V29.024H173.635V30.0107H167.032Z" fill="white"/>
</svg>
