<svg width="74" height="74" viewBox="0 0 74 74" fill="none" xmlns="http://www.w3.org/2000/svg">
<g filter="url(#filter0_d_1_973)">
<rect x="2" y="7" width="64" height="64" rx="32" fill="white" shape-rendering="crispEdges"/>
<rect x="3" y="8" width="62" height="62" rx="31" stroke="#FF3F1E" stroke-opacity="0.2" stroke-width="2" shape-rendering="crispEdges"/>
<path d="M32.6 43.6L39.65 36.55L38.25 35.15L32.6 40.8L29.75 37.95L28.35 39.35L32.6 43.6ZM34 49C32.6167 49 31.3167 48.7375 30.1 48.2125C28.8833 47.6875 27.825 46.975 26.925 46.075C26.025 45.175 25.3125 44.1167 24.7875 42.9C24.2625 41.6833 24 40.3833 24 39C24 37.6167 24.2625 36.3167 24.7875 35.1C25.3125 33.8833 26.025 32.825 26.925 31.925C27.825 31.025 28.8833 30.3125 30.1 29.7875C31.3167 29.2625 32.6167 29 34 29C35.3833 29 36.6833 29.2625 37.9 29.7875C39.1167 30.3125 40.175 31.025 41.075 31.925C41.975 32.825 42.6875 33.8833 43.2125 35.1C43.7375 36.3167 44 37.6167 44 39C44 40.3833 43.7375 41.6833 43.2125 42.9C42.6875 44.1167 41.975 45.175 41.075 46.075C40.175 46.975 39.1167 47.6875 37.9 48.2125C36.6833 48.7375 35.3833 49 34 49ZM34 47C36.2333 47 38.125 46.225 39.675 44.675C41.225 43.125 42 41.2333 42 39C42 36.7667 41.225 34.875 39.675 33.325C38.125 31.775 36.2333 31 34 31C31.7667 31 29.875 31.775 28.325 33.325C26.775 34.875 26 36.7667 26 39C26 41.2333 26.775 43.125 28.325 44.675C29.875 46.225 31.7667 47 34 47Z" fill="#5F5E5E"/>
<rect x="48" y="1" width="24" height="24" rx="12" fill="#FF3F1E" fill-opacity="0.2"/>
<path d="M59.8684 16.1433C59.5129 16.1433 59.1851 16.0803 58.8851 15.9542C58.5851 15.8281 58.327 15.6472 58.1109 15.4117C57.8948 15.1761 57.7362 14.8956 57.6351 14.57L58.3351 14.36C58.4562 14.7167 58.6543 14.987 58.9293 15.1708C59.2043 15.3547 59.5151 15.4434 59.8618 15.4367C60.1818 15.43 60.4571 15.3578 60.6876 15.22C60.9182 15.0822 61.0954 14.8922 61.2193 14.65C61.3432 14.4078 61.4051 14.1256 61.4051 13.8033C61.4051 13.3133 61.2626 12.9192 60.9776 12.6208C60.6926 12.3225 60.3162 12.1733 59.8484 12.1733C59.7195 12.1733 59.5834 12.1914 59.4401 12.2275C59.2968 12.2636 59.164 12.3122 59.0418 12.3733L58.6718 11.79L61.4685 9.20332L61.5885 9.50665H57.9218V8.8H62.0818V9.51332L59.6417 11.8467L59.6317 11.5533C60.1295 11.49 60.5687 11.5469 60.9493 11.7242C61.3298 11.9014 61.6276 12.1708 61.8426 12.5325C62.0576 12.8942 62.1651 13.3178 62.1651 13.8033C62.1651 14.2656 62.0657 14.6725 61.8668 15.0242C61.6679 15.3758 61.3957 15.6503 61.0501 15.8475C60.7045 16.0447 60.3107 16.1433 59.8684 16.1433Z" fill="white"/>
</g>
<defs>
<filter id="filter0_d_1_973" x="0" y="0" width="74" height="74" filterUnits="userSpaceOnUse" color-interpolation-filters="sRGB">
<feFlood flood-opacity="0" result="BackgroundImageFix"/>
<feColorMatrix in="SourceAlpha" type="matrix" values="0 0 0 0 0 0 0 0 0 0 0 0 0 0 0 0 0 0 127 0" result="hardAlpha"/>
<feOffset dy="1"/>
<feGaussianBlur stdDeviation="1"/>
<feComposite in2="hardAlpha" operator="out"/>
<feColorMatrix type="matrix" values="0 0 0 0 0 0 0 0 0 0 0 0 0 0 0 0 0 0 0.05 0"/>
<feBlend mode="normal" in2="BackgroundImageFix" result="effect1_dropShadow_1_973"/>
<feBlend mode="normal" in="SourceGraphic" in2="effect1_dropShadow_1_973" result="shape"/>
</filter>
</defs>
</svg>
