<svg width="80" height="77" viewBox="0 0 80 77" fill="none" xmlns="http://www.w3.org/2000/svg">
<rect x="12" y="2" width="56" height="53.3333" rx="16" fill="#FF3F1E"/>
<g filter="url(#filter0_dd_3_14)">
<rect x="12" y="2" width="56" height="53" rx="16" fill="white" fill-opacity="0.01" shape-rendering="crispEdges"/>
</g>
<path d="M32 36.6667V38C32 38.3778 31.8722 38.6944 31.6167 38.95C31.3611 39.2056 31.0444 39.3333 30.6667 39.3333H29.3333C28.9556 39.3333 28.6389 39.2056 28.3833 38.95C28.1278 38.6944 28 38.3778 28 38V27.3333L30.8 19.3333C30.9333 18.9333 31.1722 18.6111 31.5167 18.3667C31.8611 18.1222 32.2444 18 32.6667 18H47.3333C47.7556 18 48.1389 18.1222 48.4833 18.3667C48.8278 18.6111 49.0667 18.9333 49.2 19.3333L52 27.3333V38C52 38.3778 51.8722 38.6944 51.6167 38.95C51.3611 39.2056 51.0444 39.3333 50.6667 39.3333H49.3333C48.9556 39.3333 48.6389 39.2056 48.3833 38.95C48.1278 38.6944 48 38.3778 48 38V36.6667H32ZM31.7333 24.6667H48.2667L46.8667 20.6667H33.1333L31.7333 24.6667ZM30.6667 27.3333V34V27.3333ZM34 32.6667C34.5556 32.6667 35.0278 32.4722 35.4167 32.0833C35.8056 31.6944 36 31.2222 36 30.6667C36 30.1111 35.8056 29.6389 35.4167 29.25C35.0278 28.8611 34.5556 28.6667 34 28.6667C33.4444 28.6667 32.9722 28.8611 32.5833 29.25C32.1944 29.6389 32 30.1111 32 30.6667C32 31.2222 32.1944 31.6944 32.5833 32.0833C32.9722 32.4722 33.4444 32.6667 34 32.6667ZM46 32.6667C46.5556 32.6667 47.0278 32.4722 47.4167 32.0833C47.8056 31.6944 48 31.2222 48 30.6667C48 30.1111 47.8056 29.6389 47.4167 29.25C47.0278 28.8611 46.5556 28.6667 46 28.6667C45.4444 28.6667 44.9722 28.8611 44.5833 29.25C44.1944 29.6389 44 30.1111 44 30.6667C44 31.2222 44.1944 31.6944 44.5833 32.0833C44.9722 32.4722 45.4444 32.6667 46 32.6667ZM30.6667 34H49.3333V27.3333H30.6667V34Z" fill="white"/>
<defs>
<filter id="filter0_dd_3_14" x="0" y="0" width="80" height="77" filterUnits="userSpaceOnUse" color-interpolation-filters="sRGB">
<feFlood flood-opacity="0" result="BackgroundImageFix"/>
<feColorMatrix in="SourceAlpha" type="matrix" values="0 0 0 0 0 0 0 0 0 0 0 0 0 0 0 0 0 0 127 0" result="hardAlpha"/>
<feMorphology radius="4" operator="erode" in="SourceAlpha" result="effect1_dropShadow_3_14"/>
<feOffset dy="4"/>
<feGaussianBlur stdDeviation="3"/>
<feComposite in2="hardAlpha" operator="out"/>
<feColorMatrix type="matrix" values="0 0 0 0 0 0 0 0 0 0 0 0 0 0 0 0 0 0 0.1 0"/>
<feBlend mode="normal" in2="BackgroundImageFix" result="effect1_dropShadow_3_14"/>
<feColorMatrix in="SourceAlpha" type="matrix" values="0 0 0 0 0 0 0 0 0 0 0 0 0 0 0 0 0 0 127 0" result="hardAlpha"/>
<feMorphology radius="3" operator="erode" in="SourceAlpha" result="effect2_dropShadow_3_14"/>
<feOffset dy="10"/>
<feGaussianBlur stdDeviation="7.5"/>
<feComposite in2="hardAlpha" operator="out"/>
<feColorMatrix type="matrix" values="0 0 0 0 0 0 0 0 0 0 0 0 0 0 0 0 0 0 0.1 0"/>
<feBlend mode="normal" in2="effect1_dropShadow_3_14" result="effect2_dropShadow_3_14"/>
<feBlend mode="normal" in="SourceGraphic" in2="effect2_dropShadow_3_14" result="shape"/>
</filter>
</defs>
</svg>
