<svg width="40" height="40" viewBox="0 0 40 40" fill="none" xmlns="http://www.w3.org/2000/svg">
<rect width="40" height="40" rx="20" fill="#191C1D" fill-opacity="0.05"/>
<path d="M25 28.3332C24.3056 28.3332 23.7153 28.0901 23.2292 27.604C22.7431 27.1179 22.5 26.5276 22.5 25.8332C22.5 25.7498 22.5208 25.5554 22.5625 25.2498L16.7083 21.8332C16.4861 22.0415 16.2292 22.2047 15.9375 22.3228C15.6458 22.4408 15.3333 22.4998 15 22.4998C14.3056 22.4998 13.7153 22.2568 13.2292 21.7707C12.7431 21.2846 12.5 20.6943 12.5 19.9998C12.5 19.3054 12.7431 18.7151 13.2292 18.229C13.7153 17.7429 14.3056 17.4998 15 17.4998C15.3333 17.4998 15.6458 17.5589 15.9375 17.6769C16.2292 17.795 16.4861 17.9582 16.7083 18.1665L22.5625 14.7498C22.5347 14.6526 22.5174 14.5589 22.5104 14.4686C22.5035 14.3783 22.5 14.2776 22.5 14.1665C22.5 13.4721 22.7431 12.8818 23.2292 12.3957C23.7153 11.9096 24.3056 11.6665 25 11.6665C25.6944 11.6665 26.2847 11.9096 26.7708 12.3957C27.2569 12.8818 27.5 13.4721 27.5 14.1665C27.5 14.8609 27.2569 15.4512 26.7708 15.9373C26.2847 16.4234 25.6944 16.6665 25 16.6665C24.6667 16.6665 24.3542 16.6075 24.0625 16.4894C23.7708 16.3714 23.5139 16.2082 23.2917 15.9998L17.4375 19.4165C17.4653 19.5137 17.4826 19.6075 17.4896 19.6978C17.4965 19.788 17.5 19.8887 17.5 19.9998C17.5 20.1109 17.4965 20.2116 17.4896 20.3019C17.4826 20.3922 17.4653 20.4859 17.4375 20.5832L23.2917 23.9998C23.5139 23.7915 23.7708 23.6283 24.0625 23.5103C24.3542 23.3922 24.6667 23.3332 25 23.3332C25.6944 23.3332 26.2847 23.5762 26.7708 24.0623C27.2569 24.5484 27.5 25.1387 27.5 25.8332C27.5 26.5276 27.2569 27.1179 26.7708 27.604C26.2847 28.0901 25.6944 28.3332 25 28.3332ZM25 26.6665C25.2361 26.6665 25.434 26.5866 25.5938 26.4269C25.7535 26.2672 25.8333 26.0693 25.8333 25.8332C25.8333 25.5971 25.7535 25.3991 25.5938 25.2394C25.434 25.0797 25.2361 24.9998 25 24.9998C24.7639 24.9998 24.566 25.0797 24.4062 25.2394C24.2465 25.3991 24.1667 25.5971 24.1667 25.8332C24.1667 26.0693 24.2465 26.2672 24.4062 26.4269C24.566 26.5866 24.7639 26.6665 25 26.6665ZM15 20.8332C15.2361 20.8332 15.434 20.7533 15.5938 20.5936C15.7535 20.4339 15.8333 20.2359 15.8333 19.9998C15.8333 19.7637 15.7535 19.5658 15.5938 19.4061C15.434 19.2464 15.2361 19.1665 15 19.1665C14.7639 19.1665 14.566 19.2464 14.4062 19.4061C14.2465 19.5658 14.1667 19.7637 14.1667 19.9998C14.1667 20.2359 14.2465 20.4339 14.4062 20.5936C14.566 20.7533 14.7639 20.8332 15 20.8332ZM25 14.9998C25.2361 14.9998 25.434 14.92 25.5938 14.7603C25.7535 14.6005 25.8333 14.4026 25.8333 14.1665C25.8333 13.9304 25.7535 13.7325 25.5938 13.5728C25.434 13.413 25.2361 13.3332 25 13.3332C24.7639 13.3332 24.566 13.413 24.4062 13.5728C24.2465 13.7325 24.1667 13.9304 24.1667 14.1665C24.1667 14.4026 24.2465 14.6005 24.4062 14.7603C24.566 14.92 24.7639 14.9998 25 14.9998Z" fill="#FF5234"/>
</svg>
