<svg width="152" height="56" viewBox="0 0 152 56" fill="none" xmlns="http://www.w3.org/2000/svg">
<path d="M0 0H151.36V56H48C21.4903 56 0 34.5097 0 8V0Z" fill="#E5E2E1"/>
<path d="M20.1867 34V23.6053H16.16V22.48H25.3867V23.6053H21.36V34H20.1867ZM25.864 34V25.36H26.92V27.44L26.712 27.168C26.8098 26.912 26.936 26.6756 27.0906 26.4587C27.2453 26.2418 27.4124 26.064 27.592 25.9253C27.8177 25.7298 28.0791 25.58 28.376 25.476C28.6729 25.372 28.9733 25.3107 29.2773 25.292C29.5813 25.2733 29.8604 25.296 30.1146 25.36V26.464C29.7964 26.3857 29.4511 26.3675 29.0786 26.4093C28.7062 26.4511 28.3617 26.5991 28.0453 26.8533C27.7573 27.0809 27.5422 27.3498 27.4 27.66C27.2577 27.9702 27.1626 28.3 27.1146 28.6493C27.0666 28.9987 27.0426 29.3458 27.0426 29.6907V34H25.864ZM33.7867 34.24C33.1324 34.24 32.5862 34.1222 32.148 33.8867C31.7098 33.6511 31.3809 33.3391 31.1613 32.9507C30.9418 32.5622 30.832 32.1387 30.832 31.68C30.832 31.2089 30.9262 30.8071 31.1147 30.4747C31.3031 30.1422 31.5622 29.8698 31.892 29.6573C32.2218 29.4449 32.6009 29.2818 33.0293 29.168C33.4702 29.0613 33.9556 28.9671 34.4854 28.8853C35.0151 28.8036 35.5351 28.7311 36.0454 28.668C36.5556 28.6049 37.0027 28.5458 37.3867 28.4907L36.9654 28.7413C36.9831 27.8915 36.8187 27.2604 36.472 26.848C36.1253 26.4355 35.5218 26.2293 34.6613 26.2293C34.0711 26.2293 33.5715 26.3626 33.1626 26.6293C32.7538 26.896 32.4675 27.3173 32.304 27.8933L31.1573 27.5573C31.3582 26.7858 31.7573 26.1867 32.3547 25.76C32.952 25.3333 33.728 25.12 34.6827 25.12C35.4702 25.12 36.1404 25.2676 36.6933 25.5627C37.2462 25.8578 37.6373 26.2862 37.8667 26.848C37.9733 27.0969 38.0427 27.376 38.0747 27.6853C38.1067 27.9947 38.1227 28.3111 38.1227 28.6347V34H37.072V31.8293L37.376 31.9626C37.0827 32.704 36.6271 33.2689 36.0093 33.6573C35.3916 34.0458 34.6507 34.24 33.7867 34.24ZM33.92 33.2214C34.4693 33.2214 34.9489 33.1231 35.3587 32.9267C35.7685 32.7302 36.0991 32.4605 36.3507 32.1173C36.6022 31.7742 36.7645 31.3849 36.8374 30.9493C36.9031 30.672 36.9391 30.3675 36.9454 30.036C36.9516 29.7044 36.9547 29.4542 36.9547 29.2853L37.4027 29.52C36.9991 29.5733 36.5645 29.6271 36.0987 29.6813C35.6329 29.7355 35.1742 29.7964 34.7227 29.864C34.2711 29.9315 33.8649 30.0142 33.504 30.112C33.2587 30.1831 33.0218 30.2813 32.7933 30.4067C32.5649 30.532 32.3773 30.6978 32.2306 30.904C32.084 31.1102 32.0106 31.3689 32.0106 31.68C32.0106 31.9307 32.0733 32.1738 32.1986 32.4093C32.324 32.6449 32.5262 32.8391 32.8053 32.992C33.0844 33.1449 33.456 33.2214 33.92 33.2214ZM43.5547 34.24C42.7458 34.24 42.056 34.0391 41.4853 33.6373C40.9147 33.2356 40.4778 32.6898 40.1747 32C39.8716 31.3102 39.72 30.5333 39.72 29.6693C39.72 28.8107 39.8707 28.0378 40.172 27.3507C40.4733 26.6636 40.9067 26.12 41.472 25.72C42.0373 25.32 42.7155 25.12 43.5067 25.12C44.3173 25.12 45 25.3173 45.5547 25.712C46.1093 26.1067 46.5289 26.6471 46.8133 27.3333C47.0978 28.0196 47.24 28.7982 47.24 29.6693C47.24 30.5298 47.0982 31.3049 46.8147 31.9947C46.5311 32.6844 46.1155 33.2311 45.568 33.6347C45.0204 34.0382 44.3493 34.24 43.5547 34.24ZM43.672 33.1467C44.2853 33.1467 44.7924 32.9965 45.1933 32.696C45.5942 32.3956 45.8924 31.9831 46.088 31.4587C46.2836 30.9342 46.3813 30.3378 46.3813 29.6693C46.3813 28.9938 46.2827 28.3955 46.0853 27.8747C45.888 27.3538 45.5907 26.9466 45.1933 26.6533C44.796 26.36 44.2978 26.2133 43.6987 26.2133C43.0782 26.2133 42.5658 26.3658 42.1613 26.6706C41.7569 26.9755 41.4569 27.3889 41.2613 27.9107C41.0657 28.4324 40.968 29.0187 40.968 29.6693C40.968 30.3253 41.0684 30.916 41.2693 31.4413C41.4702 31.9667 41.7706 32.3822 42.1706 32.688C42.5706 32.9938 43.0711 33.1467 43.672 33.1467ZM46.3813 34V27.4933H46.2587V22.48H47.4373V34H46.3813ZM49.84 23.7227V22.4H51.0133V23.7227H49.84ZM49.84 34V25.36H51.0133V34H49.84ZM58.12 34C57.6329 34.1013 57.1533 34.1418 56.6813 34.1213C56.2093 34.1009 55.788 33.9996 55.4173 33.8173C55.0467 33.6351 54.7671 33.3529 54.5787 32.9707C54.4222 32.6507 54.3369 32.3258 54.3227 31.996C54.3085 31.6662 54.3013 31.2907 54.3013 30.8693V22.96H55.4746V30.8267C55.4746 31.1876 55.4786 31.4894 55.4866 31.732C55.4946 31.9747 55.5493 32.1902 55.6506 32.3787C55.8426 32.736 56.1475 32.9485 56.5653 33.016C56.9831 33.0836 57.5013 33.0685 58.12 32.9707V34ZM52.456 26.368V25.36H58.12V26.368H52.456ZM59.984 23.7227V22.4H61.1573V23.7227H59.984ZM59.984 34V25.36H61.1573V34H59.984ZM67.1707 34.24C66.312 34.24 65.5778 34.0453 64.968 33.656C64.3582 33.2667 63.8911 32.7284 63.5667 32.0413C63.2422 31.3542 63.08 30.5636 63.08 29.6693C63.08 28.7644 63.2453 27.9702 63.576 27.2867C63.9067 26.6031 64.3778 26.0711 64.9893 25.6907C65.6009 25.3102 66.328 25.12 67.1707 25.12C68.0329 25.12 68.7693 25.3138 69.38 25.7013C69.9907 26.0889 70.4578 26.6244 70.7813 27.308C71.1049 27.9916 71.2666 28.7787 71.2666 29.6693C71.2666 30.576 71.1035 31.372 70.7773 32.0573C70.4511 32.7427 69.9818 33.2778 69.3693 33.6627C68.7569 34.0476 68.024 34.24 67.1707 34.24ZM67.1707 33.1147C68.1289 33.1147 68.8431 32.7951 69.3133 32.156C69.7836 31.5169 70.0187 30.688 70.0187 29.6693C70.0187 28.6275 69.7818 27.7964 69.308 27.176C68.8342 26.5555 68.1218 26.2453 67.1707 26.2453C66.5253 26.2453 65.9929 26.3911 65.5733 26.6826C65.1538 26.9742 64.8413 27.3769 64.636 27.8907C64.4306 28.4044 64.328 28.9973 64.328 29.6693C64.328 30.7093 64.5684 31.5436 65.0493 32.172C65.5302 32.8005 66.2373 33.1147 67.1707 33.1147ZM79.264 34V29.5893C79.264 29.1111 79.2187 28.6706 79.128 28.268C79.0373 27.8653 78.8916 27.5137 78.6907 27.2133C78.4898 26.9129 78.2307 26.68 77.9133 26.5146C77.596 26.3493 77.2107 26.2666 76.7573 26.2666C76.3431 26.2666 75.9769 26.3378 75.6586 26.48C75.3404 26.6222 75.0737 26.828 74.8586 27.0973C74.6435 27.3667 74.4804 27.6942 74.3693 28.08C74.2582 28.4658 74.2026 28.9031 74.2026 29.392L73.3706 29.2053C73.3706 28.32 73.5253 27.576 73.8346 26.9733C74.144 26.3707 74.5702 25.9156 75.1133 25.608C75.6564 25.3004 76.2809 25.1467 76.9866 25.1467C77.504 25.1467 77.9555 25.2258 78.3413 25.384C78.7271 25.5422 79.0546 25.7573 79.324 26.0293C79.5933 26.3013 79.8106 26.6129 79.976 26.964C80.1413 27.3151 80.2613 27.6862 80.336 28.0773C80.4106 28.4684 80.448 28.8587 80.448 29.248V34H79.264ZM73.0187 34V25.36H74.08V27.488H74.2026V34H73.0187ZM85.0027 34.24C84.3484 34.24 83.8022 34.1222 83.364 33.8867C82.9258 33.6511 82.5969 33.3391 82.3773 32.9507C82.1578 32.5622 82.048 32.1387 82.048 31.68C82.048 31.2089 82.1422 30.8071 82.3307 30.4747C82.5191 30.1422 82.7782 29.8698 83.108 29.6573C83.4378 29.4449 83.8169 29.2818 84.2453 29.168C84.6862 29.0613 85.1716 28.9671 85.7013 28.8853C86.2311 28.8036 86.7511 28.7311 87.2614 28.668C87.7716 28.6049 88.2187 28.5458 88.6027 28.4907L88.1813 28.7413C88.1991 27.8915 88.0347 27.2604 87.688 26.848C87.3413 26.4355 86.7378 26.2293 85.8773 26.2293C85.2871 26.2293 84.7875 26.3626 84.3786 26.6293C83.9698 26.896 83.6835 27.3173 83.52 27.8933L82.3733 27.5573C82.5742 26.7858 82.9733 26.1867 83.5707 25.76C84.168 25.3333 84.944 25.12 85.8987 25.12C86.6862 25.12 87.3564 25.2676 87.9093 25.5627C88.4622 25.8578 88.8533 26.2862 89.0827 26.848C89.1893 27.0969 89.2587 27.376 89.2907 27.6853C89.3227 27.9947 89.3387 28.3111 89.3387 28.6347V34H88.288V31.8293L88.592 31.9626C88.2987 32.704 87.8431 33.2689 87.2253 33.6573C86.6076 34.0458 85.8667 34.24 85.0027 34.24ZM85.136 33.2214C85.6853 33.2214 86.1649 33.1231 86.5747 32.9267C86.9845 32.7302 87.3151 32.4605 87.5667 32.1173C87.8182 31.7742 87.9805 31.3849 88.0534 30.9493C88.1191 30.672 88.1551 30.3675 88.1613 30.036C88.1676 29.7044 88.1707 29.4542 88.1707 29.2853L88.6187 29.52C88.2151 29.5733 87.7805 29.6271 87.3147 29.6813C86.8489 29.7355 86.3902 29.7964 85.9387 29.864C85.4871 29.9315 85.0809 30.0142 84.72 30.112C84.4747 30.1831 84.2378 30.2813 84.0093 30.4067C83.7809 30.532 83.5933 30.6978 83.4466 30.904C83.3 31.1102 83.2266 31.3689 83.2266 31.68C83.2266 31.9307 83.2893 32.1738 83.4146 32.4093C83.54 32.6449 83.7422 32.8391 84.0213 32.992C84.3004 33.1449 84.672 33.2214 85.136 33.2214ZM91.576 34V22.24H92.7493V34H91.576ZM103.019 34.24C101.87 34.24 100.902 33.9858 100.113 33.4773C99.3249 32.9689 98.7276 32.264 98.3213 31.3627C97.9151 30.4613 97.712 29.4204 97.712 28.24C97.712 27.0596 97.9151 26.0187 98.3213 25.1173C98.7276 24.216 99.3249 23.5111 100.113 23.0027C100.902 22.4942 101.87 22.24 103.019 22.24C104.356 22.24 105.448 22.5831 106.295 23.2693C107.142 23.9556 107.723 24.8747 108.037 26.0267L106.837 26.336C106.596 25.424 106.156 24.7018 105.52 24.1693C104.884 23.6369 104.05 23.3706 103.019 23.3706C102.117 23.3706 101.368 23.576 100.769 23.9866C100.171 24.3973 99.7209 24.9689 99.4186 25.7013C99.1164 26.4338 98.9617 27.28 98.9546 28.24C98.9475 29.2 99.0951 30.0453 99.3973 30.776C99.6995 31.5067 100.153 32.0782 100.759 32.4907C101.364 32.9031 102.117 33.1094 103.019 33.1094C104.05 33.1094 104.884 32.8418 105.52 32.3067C106.156 31.7716 106.596 31.0507 106.837 30.144L108.037 30.4533C107.723 31.6053 107.142 32.5244 106.295 33.2107C105.448 33.8969 104.356 34.24 103.019 34.24ZM112.275 34.24C111.62 34.24 111.074 34.1222 110.636 33.8867C110.198 33.6511 109.869 33.3391 109.649 32.9507C109.43 32.5622 109.32 32.1387 109.32 31.68C109.32 31.2089 109.414 30.8071 109.603 30.4747C109.791 30.1422 110.05 29.8698 110.38 29.6573C110.71 29.4449 111.089 29.2818 111.517 29.168C111.958 29.0613 112.444 28.9671 112.973 28.8853C113.503 28.8036 114.023 28.7311 114.533 28.668C115.044 28.6049 115.491 28.5458 115.875 28.4907L115.453 28.7413C115.471 27.8915 115.307 27.2604 114.96 26.848C114.613 26.4355 114.01 26.2293 113.149 26.2293C112.559 26.2293 112.06 26.3626 111.651 26.6293C111.242 26.896 110.956 27.3173 110.792 27.8933L109.645 27.5573C109.846 26.7858 110.245 26.1867 110.843 25.76C111.44 25.3333 112.216 25.12 113.171 25.12C113.958 25.12 114.628 25.2676 115.181 25.5627C115.734 25.8578 116.125 26.2862 116.355 26.848C116.461 27.0969 116.531 27.376 116.563 27.6853C116.595 27.9947 116.611 28.3111 116.611 28.6347V34H115.56V31.8293L115.864 31.9626C115.571 32.704 115.115 33.2689 114.497 33.6573C113.88 34.0458 113.139 34.24 112.275 34.24ZM112.408 33.2214C112.957 33.2214 113.437 33.1231 113.847 32.9267C114.256 32.7302 114.587 32.4605 114.839 32.1173C115.09 31.7742 115.252 31.3849 115.325 30.9493C115.391 30.672 115.427 30.3675 115.433 30.036C115.44 29.7044 115.443 29.4542 115.443 29.2853L115.891 29.52C115.487 29.5733 115.052 29.6271 114.587 29.6813C114.121 29.7355 113.662 29.7964 113.211 29.864C112.759 29.9315 112.353 30.0142 111.992 30.112C111.747 30.1831 111.51 30.2813 111.281 30.4067C111.053 30.532 110.865 30.6978 110.719 30.904C110.572 31.1102 110.499 31.3689 110.499 31.68C110.499 31.9307 110.561 32.1738 110.687 32.4093C110.812 32.6449 111.014 32.8391 111.293 32.992C111.572 33.1449 111.944 33.2214 112.408 33.2214ZM122.565 34.24C121.771 34.24 121.1 34.0382 120.552 33.6347C120.004 33.2311 119.589 32.6844 119.305 31.9947C119.022 31.3049 118.88 30.5298 118.88 29.6693C118.88 28.7982 119.022 28.0196 119.307 27.3333C119.591 26.6471 120.011 26.1067 120.565 25.712C121.12 25.3173 121.803 25.12 122.613 25.12C123.404 25.12 124.083 25.32 124.648 25.72C125.213 26.12 125.647 26.6636 125.948 27.3507C126.249 28.0378 126.4 28.8107 126.4 29.6693C126.4 30.5333 126.248 31.3102 125.945 32C125.642 32.6898 125.205 33.2356 124.635 33.6373C124.064 34.0391 123.374 34.24 122.565 34.24ZM118.683 34V22.48H119.861V27.4933H119.739V34H118.683ZM122.448 33.1467C123.049 33.1467 123.549 32.9938 123.949 32.688C124.349 32.3822 124.65 31.9667 124.851 31.4413C125.052 30.916 125.152 30.3253 125.152 29.6693C125.152 29.0187 125.053 28.4324 124.856 27.9107C124.659 27.3889 124.359 26.9755 123.956 26.6706C123.553 26.3658 123.042 26.2133 122.421 26.2133C121.822 26.2133 121.324 26.36 120.927 26.6533C120.529 26.9466 120.232 27.3538 120.035 27.8747C119.837 28.3955 119.739 28.9938 119.739 29.6693C119.739 30.3378 119.836 30.9342 120.032 31.4587C120.228 31.9831 120.526 32.3956 120.927 32.696C121.328 32.9965 121.835 33.1467 122.448 33.1467ZM131.307 34.2293C130.293 34.2293 129.46 34.0111 128.807 33.5747C128.153 33.1382 127.751 32.5298 127.6 31.7493L128.8 31.552C128.926 32.0427 129.218 32.4329 129.676 32.7227C130.134 33.0125 130.699 33.1574 131.371 33.1574C132.025 33.1574 132.541 33.02 132.92 32.7454C133.299 32.4707 133.488 32.096 133.488 31.6213C133.488 31.3547 133.428 31.1373 133.307 30.9693C133.186 30.8013 132.942 30.6453 132.575 30.5013C132.208 30.3573 131.659 30.1867 130.928 29.9893C130.146 29.7795 129.532 29.5671 129.088 29.352C128.644 29.1369 128.329 28.8893 128.144 28.6093C127.959 28.3293 127.867 27.9875 127.867 27.584C127.867 27.0933 128.004 26.6627 128.28 26.292C128.556 25.9213 128.939 25.6333 129.431 25.428C129.922 25.2227 130.494 25.12 131.147 25.12C131.796 25.12 132.377 25.2249 132.891 25.4347C133.404 25.6444 133.819 25.9387 134.135 26.3173C134.45 26.696 134.636 27.136 134.693 27.6373L133.493 27.856C133.413 27.3475 133.162 26.9458 132.739 26.6506C132.316 26.3555 131.78 26.2026 131.131 26.192C130.517 26.176 130.018 26.2915 129.633 26.5386C129.248 26.7858 129.056 27.1147 129.056 27.5253C129.056 27.7564 129.125 27.9538 129.263 28.1173C129.4 28.2809 129.652 28.4338 130.017 28.576C130.383 28.7182 130.905 28.8747 131.584 29.0453C132.379 29.248 133.003 29.4618 133.457 29.6867C133.912 29.9116 134.234 30.1765 134.424 30.4813C134.614 30.7862 134.709 31.1609 134.709 31.6053C134.709 32.4231 134.407 33.0649 133.803 33.5307C133.198 33.9964 132.366 34.2293 131.307 34.2293Z" fill="#5F5E5E"/>
</svg>
